<svg width="24" height="23" viewBox="0 0 24 23" fill="none" xmlns="http://www.w3.org/2000/svg">
<path d="M4.14679 22.4007L1 19.2539C1 19.2539 5.84775 12.7477 6.48561 12.1099C7.03842 11.557 7.63376 11.472 9.20715 11.472C11.8436 11.472 14.0974 7.09201 14.3526 7.34716C14.8629 7.85744 15.6283 8.62288 16.1386 9.17569C16.3937 9.43084 12.1838 11.3869 12.0137 14.3636C11.9287 15.852 12.0563 16.2347 11.2483 17.2127C11.0357 17.4254 6.61318 20.4871 4.14679 22.4007Z" stroke="#ffffff" stroke-width="0.665383" stroke-miterlimit="10"/>
<path d="M6.82227 11.979L11.376 16.4903" stroke="#ffffff" stroke-width="0.665383" stroke-miterlimit="10"/>
<path d="M20.391 4.20046C20.3485 4.11541 20.5186 4.03037 20.5612 3.90279C20.7738 3.3925 20.391 2.96726 20.6037 2.83969C20.9013 2.62707 22.2621 3.22241 22.3046 3.5626C22.3472 3.86027 21.5392 3.86027 21.5392 4.28551C21.5392 4.32803 21.5392 4.49813 21.4967 4.6257C21.4116 4.75327 20.4761 4.41308 20.391 4.20046Z" stroke="#ffffff" stroke-width="0.665383" stroke-miterlimit="10"/>
<path d="M15.4152 5.90158C15.3727 5.9441 15.2026 6.1142 15.075 6.07167C14.99 6.02915 14.99 5.81653 14.99 5.77401C14.99 5.64643 15.1601 5.17867 15.3727 4.83848C15.6278 4.41324 15.2877 1.3515 15.4578 1.13888C15.5428 1.05384 16.2232 0.968787 16.3933 1.01131C16.6484 1.13888 15.9255 5.39129 15.4152 5.90158Z" stroke="#ffffff" stroke-width="0.665383" stroke-miterlimit="10"/>
<path d="M17.5415 8.07027C17.4564 8.11279 17.2438 8.24036 17.2863 8.32541C17.3288 8.41046 17.584 8.41046 17.584 8.41046C17.9242 8.41046 18.5195 8.19784 18.6471 8.15532C19.9653 7.68755 22.0065 8.87823 22.6869 8.24037C22.7719 8.15532 23.0696 7.55998 22.9845 7.47493C22.6869 7.26231 17.7966 7.94269 17.5415 8.07027Z" stroke="#ffffff" stroke-width="0.665383" stroke-miterlimit="10"/>
<path d="M16.6488 7.17739C16.6063 7.21992 16.4787 7.26244 16.3937 7.21991C16.3511 7.17739 16.3937 7.00729 16.3937 7.00729C16.4787 7.00729 16.7338 6.53953 16.8189 6.45448C17.4142 5.85915 17.4993 4.11566 17.5843 4.07313C17.6694 4.03061 18.0946 4.15818 18.1797 4.15818C18.6474 4.32827 16.7764 7.04982 16.6488 7.17739Z" stroke="#ffffff" stroke-width="0.665383" stroke-miterlimit="10"/>
<path d="M2.44604 17.2554L6.06059 20.7849" stroke="#ffffff" stroke-width="0.665383" stroke-miterlimit="10"/>
<path d="M10.4819 10.9805L12.4392 12.8752" stroke="#ffffff" stroke-width="0.665383" stroke-miterlimit="10"/>
</svg>
