<svg width="29" height="27" viewBox="0 0 29 27" fill="none" xmlns="http://www.w3.org/2000/svg">
<path d="M26.1207 8.06982L28.4773 10.992L8.91761 26.4512L6.60815 23.529" stroke="#ffffff" stroke-width="0.88638" stroke-miterlimit="10" stroke-linecap="square" stroke-linejoin="round"/>
<path d="M3.45085 19.5699L1 16.4592L20.5597 1L23.0105 4.06356" stroke="#ffffff" stroke-width="0.88638" stroke-miterlimit="10" stroke-linejoin="round"/>
<path d="M25.9795 8.16377C24.7541 9.10641 23.0102 8.91788 22.0205 7.69246C21.0778 6.46703 21.2664 4.72316 22.4918 3.7334" stroke="#ffffff" stroke-width="0.88638" stroke-miterlimit="10"/>
<path d="M2.8374 19.3813C4.06283 18.4387 5.8067 18.6272 6.79647 19.8526C7.7391 21.078 7.55058 22.8219 6.32515 23.8117" stroke="#ffffff" stroke-width="0.88638" stroke-miterlimit="10"/>
<path d="M16.1292 6.8916L17.0718 8.06989" stroke="#ffffff" stroke-width="0.88638" stroke-miterlimit="10" stroke-linecap="round"/>
<path d="M18.2502 9.53076L19.6171 11.3218" stroke="#ffffff" stroke-width="0.88638" stroke-miterlimit="10" stroke-linecap="round"/>
<path d="M20.8889 12.9243L21.8315 14.1026" stroke="#ffffff" stroke-width="0.88638" stroke-miterlimit="10" stroke-linecap="round"/>
<path d="M14.6213 4.95898L16.6951 7.6455" stroke="#ffffff" stroke-width="0.88638" stroke-miterlimit="10"/>
<path d="M20.8889 12.9243L23.0098 15.5637" stroke="#ffffff" stroke-width="0.88638" stroke-miterlimit="10"/>
<path d="M10.8509 12.2644L12.9718 13.3013L14.9985 12.123L14.6686 14.4325L16.4124 15.9878L14.103 16.412L13.1603 18.5801L12.0292 16.5063L9.71973 16.2706L11.3222 14.5739L10.8509 12.2644Z" stroke="#ffffff" stroke-width="0.88638" stroke-miterlimit="10" stroke-linecap="round" stroke-linejoin="round"/>
</svg>
