<svg width="13" height="9" viewBox="0 0 13 9" fill="none" xmlns="http://www.w3.org/2000/svg">
<path d="M5.93291 0.637362C5.29163 0.423518 3.13757 2.9403 3.13757 3.59828C3.13757 4.09176 8.39938 8.69763 8.89268 8.69763C9.71483 8.69763 12.0169 8.69763 12.1813 8.53314C12.4444 8.26994 12.839 6.2302 12.1813 5.90121C11.5236 5.57222 10.3726 5.73672 9.87926 5.24323C9.38597 4.74974 8.89268 2.61131 8.39938 2.44681C7.90609 2.28232 7.08393 2.61131 6.59063 2.11782C6.09734 1.62433 6.4262 0.801857 5.93291 0.637362Z" stroke="white" stroke-width="0.323332" stroke-miterlimit="10"/>
<path d="M3.69702 2.84082C3.69702 2.84082 8.186 7.33152 9.05749 7.54536C9.71522 7.70986 12.3461 7.54536 12.3461 7.54536" stroke="white" stroke-width="0.323332" stroke-miterlimit="10"/>
<path d="M8.89276 3.26843L7.90637 3.76135" stroke="white" stroke-width="0.323332" stroke-miterlimit="10" stroke-linecap="round"/>
<path d="M9.2226 4.09082L8.23621 4.58371" stroke="white" stroke-width="0.323332" stroke-miterlimit="10" stroke-linecap="round"/>
<path d="M0.836182 6.06531H3.95975" stroke="white" stroke-width="0.323332" stroke-miterlimit="10" stroke-linecap="round"/>
<path d="M2.1499 7.87524H5.93106" stroke="white" stroke-width="0.323332" stroke-miterlimit="10" stroke-linecap="round"/>
</svg>
