<svg width="25" height="26" viewBox="0 0 25 26" fill="none" xmlns="http://www.w3.org/2000/svg">
<path d="M7.99658 16.452C7.99658 16.452 19.3294 1.48154 22.5473 1.808C23.0603 1.85463 23.9464 2.74074 23.9931 3.20711C24.3662 7.12461 9.44233 17.8511 9.44233 17.8511L7.99658 16.452Z" stroke="#ffffff" stroke-width="0.7" stroke-miterlimit="10"/>
<path d="M3.333 24.5667C6.17785 23.8671 8.27652 20.8357 7.57697 19.6232C7.48369 19.4833 7.34379 19.3434 7.25052 19.2967C6.13123 18.1774 5.66485 17.7111 5.89803 17.9443C4.87202 17.851 3.65947 17.9443 3.05319 18.7837C2.58682 19.39 2.91328 19.903 2.54018 21.3488C2.07381 23.3075 1.4209 24.5201 1.4209 24.5201C1.4209 24.5201 3.05318 24.6133 3.333 24.5667Z" stroke="#ffffff" stroke-width="0.7" stroke-miterlimit="10"/>
<path d="M14.7127 14.2134C14.7127 14.2134 23.9934 22.095 23.8069 24.0538C23.7602 24.3802 23.2472 24.8466 22.9674 24.8932C20.5889 24.9865 12.7539 15.7524 12.7539 15.7524L14.7127 14.2134Z" stroke="#ffffff" stroke-width="0.7" stroke-miterlimit="10"/>
<path d="M10.8415 7.35775L6.73745 11.0421C6.73745 11.0421 0.907834 6.84475 1.00111 4.69945C1.09438 3.30034 3.75269 0.781945 5.10516 1.01513C7.20382 1.34159 10.8415 7.35775 10.8415 7.35775Z" stroke="#ffffff" stroke-width="0.7" stroke-miterlimit="10"/>
<path d="M8.4165 8.94336L11.3546 11.9748" stroke="#ffffff" stroke-width="0.7" stroke-miterlimit="10"/>
</svg>
