<svg xmlns="http://www.w3.org/2000/svg" width="40.338" height="39.338" viewBox="0 0 40.338 39.338">
  <g id="Group_579" data-name="Group 579" transform="translate(0.714 0.3)">
    <g id="Path_254" data-name="Path 254" transform="translate(0 4.414)" fill="none">
      <path d="M6.339,32.894,1,27.555s8.225-11.038,9.307-12.12c.938-.938,1.948-1.082,4.617-1.082,4.473,0,8.3-7.431,8.73-7,.866.866,2.164,2.164,3.03,3.1.433.433-6.71,3.752-7,8.8-.144,2.525.072,3.174-1.3,4.834C18.026,24.453,10.523,29.648,6.339,32.894Z" stroke="none"/>
      <path d="M 6.338788509368896 32.89422225952148 C 10.52322864532471 29.64763450622559 18.02639770507812 24.45321464538574 18.38709831237793 24.09234428405762 C 19.75793838500977 22.43308448791504 19.54145812988281 21.78380393981934 19.68565940856934 19.25861358642578 C 19.9742488861084 14.20839405059814 27.11669921875 10.88977336883545 26.68389892578125 10.45688343048096 C 25.81812858581543 9.518993377685547 24.51956939697266 8.220363616943359 23.65379905700684 7.354633808135986 C 23.22079849243164 6.921749591827393 19.3970832824707 14.35276317596436 14.9241189956665 14.35276412963867 C 12.25472831726074 14.35276412963867 11.24468898773193 14.49698352813721 10.30679893493652 15.43502330780029 C 9.224608421325684 16.51710319519043 0.9999986290931702 27.5554141998291 0.9999986290931702 27.5554141998291 L 6.338788509368896 32.89422225952148 M 6.230068683624268 34.62398529052734 L -0.7139613628387451 27.67993354797363 L -0.04245134443044662 26.77869415283203 C 0.8051486611366272 25.64111328125 8.270848274230957 15.63238334655762 9.387608528137207 14.51573371887207 C 10.70603847503662 13.19709396362305 12.15495872497559 13.05276393890381 14.9241189956665 13.05276393890381 C 15.95885848999023 13.05276393890381 17.13880920410156 12.45578384399414 18.4311695098877 11.27841377258301 C 19.6430778503418 10.17434406280518 20.68144798278809 8.813874244689941 21.43962860107422 7.820513725280762 C 22.37459945678711 6.595523834228516 22.80131912231445 6.036433696746826 23.60894775390625 6.036433696746826 C 23.97337913513184 6.036433696746826 24.31575775146484 6.178123950958252 24.57303810119629 6.435393810272217 C 25.4395637512207 7.301889419555664 26.74805641174316 8.610309600830078 27.63293838500977 9.568399429321289 C 27.89541053771973 9.847795486450195 28.02836036682129 10.2244815826416 27.99869918823242 10.60873413085938 C 27.94796943664551 11.26575374603271 27.4658088684082 11.66255378723145 27.20677947998047 11.87573337554932 C 26.97881889343262 12.06333351135254 26.67841911315918 12.28300380706787 26.3305778503418 12.53736400604248 C 24.52201843261719 13.85986423492432 21.15561866760254 16.32155418395996 20.98353958129883 19.33278465270996 C 20.96164894104004 19.71613311767578 20.94802856445312 20.06235313415527 20.9360179901123 20.36782455444336 C 20.86697959899902 22.12287330627441 20.82529830932617 23.18221282958984 19.38930892944336 24.92034339904785 L 19.35008811950684 24.96781349182129 L 19.30655860900879 25.0113639831543 C 19.11685943603516 25.20114326477051 18.72938919067383 25.48534393310547 16.11731910705566 27.35056304931641 C 13.55355834960938 29.18129348754883 9.679168701171875 31.94792366027832 7.135688781738281 33.92133331298828 L 6.230068683624268 34.62398529052734 Z" stroke="none" fill="#bee4ff"/>
    </g>
    <path id="Path_255" data-name="Path 255" d="M6.822,11.979l7.726,7.654" transform="translate(4.056 7.648)" fill="none" stroke="#bee4ff" stroke-width="1.3"/>
    <g id="Path_256" data-name="Path 256" transform="translate(13.503 1.25)" fill="none">
      <path d="M20.4,5.18c-.072-.144.216-.289.289-.505.361-.866-.289-1.587.072-1.8.5-.361,2.814.649,2.886,1.226.072.505-1.3.505-1.3,1.226a2.032,2.032,0,0,1-.072.577C22.127,6.117,20.54,5.54,20.4,5.18Z" stroke="none"/>
      <path d="M 22.11771202087402 5.948232173919678 C 22.19522285461426 5.948232173919678 22.24984931945801 5.933637619018555 22.27162551879883 5.900996208190918 C 22.34372520446777 5.684556007385254 22.34372520446777 5.395966053009033 22.34372520446777 5.323825836181641 C 22.34372520446777 4.602375984191895 23.71456527709961 4.602375984191895 23.64229583740234 4.097355842590332 C 23.5701847076416 3.520195722579956 21.26147079467773 2.510147094726562 20.7565746307373 2.87087607383728 C 20.39571571350098 3.087306022644043 21.04516410827637 3.80876612663269 20.6844654083252 4.674516201019287 C 20.6121940612793 4.890965938568115 20.32360458374023 5.03523588180542 20.39571571350098 5.179535865783691 C 20.518310546875 5.485861301422119 21.68128395080566 5.948232173919678 22.11771202087402 5.948232173919678 M 22.11771583557129 7.248236179351807 C 21.58439445495605 7.248236179351807 20.9559440612793 7.014046192169189 20.62880516052246 6.874445915222168 C 19.86897087097168 6.550216674804688 19.41602516174316 6.179437637329102 19.20909690856934 5.710852146148682 C 19.05880165100098 5.379751205444336 18.93258285522461 4.777729034423828 19.49703216552734 4.111178874969482 C 19.50090408325195 4.031816959381104 19.47561645507812 3.914761304855347 19.43766403198242 3.75208592414856 C 19.39276504516602 3.559675931930542 19.34188461303711 3.341596126556396 19.34335517883301 3.089015960693359 C 19.34653282165527 2.541406393051147 19.60133361816406 2.068323850631714 20.04441261291504 1.78305983543396 C 20.3317699432373 1.591815114021301 20.6795482635498 1.494916081428528 21.07910537719727 1.494916081428528 C 21.9144458770752 1.494916081428528 22.85299491882324 1.915646076202393 23.21773529052734 2.096535921096802 C 24.27647018432617 2.621598958969116 24.83693885803223 3.21937894821167 24.93064308166504 3.923617839813232 C 25.00959014892578 4.501472473144531 24.77260589599609 5.046061038970947 24.27933502197266 5.419136047363281 C 24.06110572814941 5.584196090698242 23.83260536193848 5.688025951385498 23.63100433349609 5.779635906219482 C 23.62678337097168 5.781554698944092 23.62245750427246 5.783520221710205 23.61803245544434 5.785532474517822 C 23.59529876708984 5.978093147277832 23.55753707885742 6.154115200042725 23.50499534606934 6.311855792999268 L 23.44984436035156 6.477416038513184 L 23.35298538208008 6.622566223144531 C 23.22745513916016 6.810686111450195 22.85580444335938 7.248236179351807 22.11771583557129 7.248236179351807 Z" stroke="none" fill="#bee4ff"/>
    </g>
    <g id="Path_257" data-name="Path 257" transform="translate(9.745 0)" fill="none">
      <path d="M15.711,9.316c-.072.072-.361.361-.577.289-.144-.072-.144-.433-.144-.505a4.8,4.8,0,0,1,.649-1.587c.433-.721-.144-5.916.144-6.277a3.69,3.69,0,0,1,1.587-.216C17.8,1.236,16.577,8.45,15.711,9.316Z" stroke="none"/>
      <path d="M 15.20761585235596 9.615999221801758 C 15.41136074066162 9.615999221801758 15.64718818664551 9.380167961120605 15.71138477325439 9.315936088562012 C 16.5771541595459 8.450185775756836 17.80361557006836 1.235625743865967 17.37081527709961 1.019185781478882 C 17.08221435546875 0.9470458030700684 15.92787456512451 1.09134578704834 15.78366470336914 1.235625743865967 C 15.49507522583008 1.596345782279968 16.07208442687988 6.79084587097168 15.63928508758545 7.512305736541748 C 15.27858448028564 8.089466094970703 14.98999500274658 8.883055686950684 14.98999500274658 9.099505424499512 C 14.98999500274658 9.171646118164062 14.98999500274658 9.532375335693359 15.13420486450195 9.60451602935791 C 15.15793609619141 9.612424850463867 15.18253135681152 9.615999221801758 15.20761585235596 9.615999221801758 M 15.20761489868164 10.91599559783936 C 15.04177474975586 10.91599559783936 14.87876510620117 10.88968563079834 14.72310447692871 10.83780574798584 L 14.63534450531006 10.80854606628418 L 14.55260467529297 10.76715564727783 C 14.15908527374268 10.57030582427979 13.68999481201172 10.12118625640869 13.68999481201172 9.099505424499512 C 13.68999481201172 8.508478164672852 14.11855792999268 7.534214019775391 14.46142864227295 6.948239803314209 C 14.55099487304688 6.440109729766846 14.48524951934814 4.761557579040527 14.4492244720459 3.841595888137817 C 14.35803508758545 1.513145804405212 14.35235500335693 0.9437158107757568 14.7685546875 0.4234957993030548 L 14.81342506408691 0.3674157857894897 L 14.86419486999512 0.3166258037090302 C 15.13768482208252 0.04299579188227654 15.4915246963501 -0.1043942049145699 16.12622451782227 -0.2090442031621933 C 16.47165489196777 -0.266004204750061 16.84917449951172 -0.3000042140483856 17.13610458374023 -0.3000042140483856 C 17.35301399230957 -0.3000042140483856 17.52777481079102 -0.2815742194652557 17.68605422973633 -0.2420142143964767 L 17.82457542419434 -0.2073942124843597 L 17.95227432250977 -0.1435241997241974 C 18.19248390197754 -0.02340420708060265 18.61221504211426 0.2814657986164093 18.7245044708252 0.9736357927322388 C 18.90131568908691 2.063485860824585 18.33453559875488 5.031545639038086 18.21911430358887 5.615465641021729 C 17.47237396240234 9.393435478210449 16.8608341217041 10.00496578216553 16.630615234375 10.23518562316895 C 16.17914390563965 10.68686580657959 15.70030498504639 10.91599559783936 15.20761489868164 10.91599559783936 Z" stroke="none" fill="#bee4ff"/>
    </g>
    <g id="Path_258" data-name="Path 258" transform="translate(11.341 4.482)" fill="none">
      <path d="M17.723,8.513c-.144.072-.505.289-.433.433s.505.144.505.144a7.326,7.326,0,0,0,1.8-.433c2.236-.794,5.7,1.226,6.854.144.144-.144.649-1.154.5-1.3C26.453,7.143,18.156,8.3,17.723,8.513Z" stroke="none"/>
      <path d="M 26.37627983093262 7.434083938598633 C 24.37844467163086 7.433987617492676 18.09819602966309 8.325857162475586 17.72314262390137 8.513427734375 C 17.57876205444336 8.585567474365234 17.21806144714355 8.801998138427734 17.2901725769043 8.946297645568848 C 17.36227226257324 9.090587615966797 17.79524230957031 9.090587615966797 17.79524230957031 9.090587615966797 C 18.37242126464844 9.090587615966797 19.38240242004395 8.729857444763184 19.5988826751709 8.657717704772949 C 21.34104347229004 8.039507865905762 23.82774925231934 9.128806114196777 25.38741493225098 9.128807067871094 C 25.82990837097168 9.128807067871094 26.19761848449707 9.041189193725586 26.4527416229248 8.802018165588379 C 26.59695243835449 8.657717704772949 27.10202217102051 7.647677421569824 26.9576416015625 7.503387451171875 C 26.8902759552002 7.455258369445801 26.68387794494629 7.434099197387695 26.37627983093262 7.434083938598633 M 26.37594223022461 6.134087562561035 L 26.37594223022461 7.434087753295898 L 26.37604141235352 6.134087562561035 C 26.93258094787598 6.13410758972168 27.35028266906738 6.186227798461914 27.71334266662598 6.445597648620605 L 27.80067253112793 6.507987976074219 L 27.8765926361084 6.583857536315918 C 28.60168075561523 7.308497428894043 28.16778182983398 8.300347328186035 28.00443267822266 8.673727989196777 C 27.88393211364746 8.949177742004395 27.64157104492188 9.45148754119873 27.37227249145508 9.720968246459961 L 27.34185218811035 9.75042724609375 C 26.86169242858887 10.2005672454834 26.20412254333496 10.42880821228027 25.38741111755371 10.42880821228027 C 24.68195152282715 10.42880821228027 23.92254257202148 10.26943778991699 23.11855125427246 10.1007080078125 C 22.33874130249023 9.937047958374023 21.53239250183105 9.767817497253418 20.84531211853027 9.767837524414062 C 20.52180099487305 9.767847061157227 20.24871253967285 9.806547164916992 20.03362274169922 9.882867813110352 L 19.95059204101562 9.911117553710938 C 19.29435157775879 10.13434791564941 18.45631217956543 10.39058780670166 17.79524230957031 10.39058780670166 C 16.99778175354004 10.39058780670166 16.40542221069336 10.08402824401855 16.12727165222168 9.527387619018555 C 15.89130210876465 9.055187225341797 15.87411117553711 8.292357444763184 16.6023120880127 7.69661808013916 C 16.81887245178223 7.519447326660156 17.05193138122559 7.395557403564453 17.14208221435547 7.350507736206055 C 17.29697227478027 7.27304744720459 17.66071128845215 7.091137886047363 21.27071189880371 6.614607810974121 C 22.36520195007324 6.470128059387207 25.05364227294922 6.134087562561035 26.37594223022461 6.134087562561035 Z" stroke="none" fill="#bee4ff"/>
    </g>
    <g id="Path_259" data-name="Path 259" transform="translate(10.71 2.135)" fill="none">
      <path d="M16.84,9.346a.443.443,0,0,1-.433.072c-.072-.072,0-.361,0-.361.144,0,.577-.794.721-.938,1.01-1.01,1.154-3.968,1.3-4.04s.866.144,1.01.144C20.23,4.512,17.056,9.129,16.84,9.346Z" stroke="none"/>
      <path d="M 16.54677963256836 9.447844505310059 C 16.66553688049316 9.447844505310059 16.78870964050293 9.396829605102539 16.83968734741211 9.345810890197754 C 17.05616760253906 9.129380226135254 20.23047637939453 4.512040615081787 19.43698692321777 4.223470211029053 C 19.2926082611084 4.223470211029053 18.57122039794922 4.007031917572021 18.42683792114258 4.079170227050781 C 18.28262710571289 4.151330471038818 18.13824653625488 7.109310626983643 17.12827682495117 8.119330406188965 C 16.98389625549316 8.263630867004395 16.55109786987305 9.057220458984375 16.40688705444336 9.057220458984375 C 16.40688705444336 9.057220458984375 16.33461761474609 9.345810890197754 16.40688705444336 9.417950630187988 C 16.44913673400879 9.439090728759766 16.49757194519043 9.447844505310059 16.54677963256836 9.447844505310059 M 16.54677772521973 10.74784088134766 C 16.28982734680176 10.74784088134766 16.04704666137695 10.69155025482178 15.82517719268799 10.58054065704346 L 15.63722705841064 10.48650074005127 L 15.48847675323486 10.33802032470703 C 15.21749687194824 10.06753063201904 14.93808746337891 9.57096004486084 15.145827293396 8.741420745849609 L 15.39229679107666 7.757220268249512 L 15.79361820220947 7.757220268249512 C 15.94854545593262 7.519835472106934 16.0613899230957 7.347657680511475 16.20929718017578 7.199840545654297 C 16.24762725830078 7.161500453948975 16.45122718811035 6.92965030670166 16.6685676574707 6.154940605163574 C 16.82815742492676 5.586070537567139 16.92814636230469 4.968960285186768 17.00114631652832 4.518360614776611 C 17.03329658508301 4.319980621337891 17.06105613708496 4.148650646209717 17.0892162322998 4.010470390319824 C 17.13363647460938 3.792510509490967 17.25161743164062 3.213560342788696 17.84510612487793 2.916590452194214 C 18.04747772216797 2.815500497817993 18.27449607849121 2.764450550079346 18.52066612243652 2.764450550079346 C 18.78433609008789 2.764450550079346 19.06085777282715 2.820760488510132 19.39496612548828 2.894360542297363 C 19.43719291687012 2.90366530418396 19.48965072631836 2.915225267410278 19.52911376953125 2.923470497131348 L 19.66603660583496 2.923470497131348 L 19.88128662109375 3.001750469207764 C 20.35897636413574 3.175470352172852 20.71130752563477 3.581980466842651 20.82378768920898 4.089170455932617 C 20.96802711486816 4.739570617675781 20.78901672363281 5.583560466766357 19.45294761657715 7.778200626373291 C 18.9498176574707 8.604630470275879 18.03972625732422 9.984310150146484 17.75881767272949 10.26515007019043 C 17.45698738098145 10.56722068786621 17.00371742248535 10.74784088134766 16.54677772521973 10.74784088134766 Z" stroke="none" fill="#bee4ff"/>
    </g>
    <path id="Path_260" data-name="Path 260" d="M2.446,17.255l6.132,5.988" transform="translate(1.007 11.323)" fill="none" stroke="#bee4ff" stroke-width="1.3"/>
    <path id="Path_261" data-name="Path 261" d="M10.482,10.981,13.8,14.2" transform="translate(6.605 6.952)" fill="none" stroke="#bee4ff" stroke-width="1.3"/>
  </g>
</svg>
