<svg xmlns="http://www.w3.org/2000/svg" width="44.503" height="37.043" viewBox="0 0 44.503 37.043">
  <g id="Group_147" data-name="Group 147" transform="translate(0.753 0.75)">
    <path id="Path_203" data-name="Path 203" d="M121.888,17.166a3.289,3.289,0,1,1,3.288-3.289A3.292,3.292,0,0,1,121.888,17.166Zm0-5.078a1.789,1.789,0,1,0,1.788,1.789A1.791,1.791,0,0,0,121.888,12.088Z" transform="translate(-96.591 -0.458)" fill="#bee4ff"/>
    <path id="Path_204" data-name="Path 204" d="M145.293,35.1H114.88V33.6h28.909a19.544,19.544,0,0,0-1.459-6.876,18.821,18.821,0,0,0-4.063-6.146,16.663,16.663,0,0,0-11.853-5.063,17.52,17.52,0,0,0-6.972,1.4,16.619,16.619,0,0,0-5.219,3.547,16.157,16.157,0,0,0-3.274,4.709A11.943,11.943,0,0,0,109.827,30h-1.5A15.66,15.66,0,0,1,113.161,19.4a18.113,18.113,0,0,1,5.688-3.866,19.011,19.011,0,0,1,7.566-1.523,18.152,18.152,0,0,1,12.917,5.505,20.313,20.313,0,0,1,4.386,6.633,21.084,21.084,0,0,1,1.58,8.2Z" transform="translate(-101.549 1.195)" fill="#bee4ff"/>
    <path id="Path_205" data-name="Path 205" d="M110.9,20.972a14.544,14.544,0,0,1-3.727-.445,5.237,5.237,0,0,1-2.755-1.544l-.007-.008c-1.071-1.347-1.4-4.24-1-8.846.281-3.275.831-6.15.854-6.27l.117-.608h13.58l.109.62c.005.031.553,3.156.825,6.507a34.377,34.377,0,0,1,.1,5c-.127,1.828-.5,3.026-1.135,3.663a6.45,6.45,0,0,1-2.995,1.472A16.4,16.4,0,0,1,110.9,20.972Zm-5.317-2.935c.719.872,2.8,1.435,5.317,1.435,2.594,0,5.02-.615,5.9-1.5.261-.261,1.076-1.572.6-7.469-.195-2.406-.535-4.7-.7-5.758H105.626c-.177,1.019-.525,3.19-.724,5.519C104.438,15.685,105.128,17.46,105.583,18.037Z" transform="translate(-104 -4)" fill="#bee4ff"/>
    <path id="Path_206" data-name="Path 206" d="M109.827,29.877h-1.5V15.007h1.5Z" transform="translate(-101.549 1.313)" fill="#bee4ff"/>
    <path id="Path_207" data-name="Path 207" d="M117.537,30.02H104.7l-.144-.564a14.885,14.885,0,0,1-.317-1.711c-.111-.933-.162-2.226.685-2.688l.04-.02c.972-.457,4.307-.507,5.7-.507a35.939,35.939,0,0,1,6.474.455l.01,0a1.12,1.12,0,0,1,.7.534,3.623,3.623,0,0,1,.146,2.461c-.119.776-.293,1.448-.3,1.476Zm-11.658-1.5h10.484a7.519,7.519,0,0,0,.214-2.119,36.9,36.9,0,0,0-5.922-.371,24.745,24.745,0,0,0-4.937.322,4.026,4.026,0,0,0,.035,1.436C105.791,28.055,105.837,28.309,105.88,28.52Z" transform="translate(-103.554 6.272)" fill="#bee4ff"/>
    <path id="Path_208" data-name="Path 208" d="M112.889,11.093a5.363,5.363,0,0,1-2.251-.668,6.434,6.434,0,0,0-2.826-.783,8.062,8.062,0,0,0-3.211,1.325l-.832-1.248a9.276,9.276,0,0,1,4.043-1.577,7.87,7.87,0,0,1,3.455.921,4.282,4.282,0,0,0,1.622.53,20.858,20.858,0,0,0,4.8-1.4l.557,1.393C117.861,9.742,114.44,11.093,112.889,11.093Z" transform="translate(-103.911 -1.639)" fill="#bee4ff"/>
  </g>
</svg>
