<svg xmlns="http://www.w3.org/2000/svg" xmlns:xlink="http://www.w3.org/1999/xlink" width="448.486" height="806.645" viewBox="0 0 448.486 806.645">
  <defs>
    <linearGradient id="linear-gradient" x1="0.129" y1="0.103" x2="0.895" y2="0.9" gradientUnits="objectBoundingBox">
      <stop offset="0" stop-color="#f24462"/>
      <stop offset="1" stop-color="#2a616a"/>
    </linearGradient>
    <linearGradient id="linear-gradient-2" x1="0.129" y1="0.103" x2="0.895" y2="0.9" gradientUnits="objectBoundingBox">
      <stop offset="0" stop-color="#f24462"/>
      <stop offset="1" stop-color="#db9000"/>
    </linearGradient>
  </defs>
  <g id="Forth_Blob" data-name="Forth Blob" transform="translate(-695.218 -3051.674)">
    <path id="Path_246" data-name="Path 246" d="M60.076-23.5c38.53,0,79.688,53.385,79.688,91.915S59.86,239.8,41.39,207.36s-1.248-96.586-27.9-131.82S21.546-23.5,60.076-23.5Z" transform="translate(691.108 3193.611)" fill="url(#linear-gradient)"/>
    <path id="Path_245" data-name="Path 245" d="M124.324-6.307C164.845-29.384,250.767,54.08,250.767,121.6s-7.916,198.5-75.436,198.5-74.21-130.983-74.21-198.5S83.8,16.77,124.324-6.307Z" transform="translate(892.937 3061.902)" fill="url(#linear-gradient-2)"/>
    <path id="Path_247" data-name="Path 247" d="M1.213-68.272c19.3,0,30.068,57.026,30.068,76.322A34.939,34.939,0,0,1-3.658,42.988C-22.954,42.988-98,42.9-98,23.6S-18.083-68.272,1.213-68.272Z" transform="translate(1081.937 3815.331)" fill="url(#linear-gradient-2)"/>
  </g>
</svg>
