<svg xmlns="http://www.w3.org/2000/svg" width="36.5" height="37.86" viewBox="0 0 36.5 37.86">
  <g id="Group_140" data-name="Group 140" transform="translate(0.75 0.75)">
    <path id="Path_219" data-name="Path 219" d="M173.125,30.2,170,27.172l.4-.53c.042-.056,4.29-5.658,9.108-11.186a95.642,95.642,0,0,1,7.377-7.725c2.761-2.509,4.7-3.678,6.092-3.678.08,0,.159,0,.235.012A3.441,3.441,0,0,1,195.029,5.1a3.434,3.434,0,0,1,1.056,1.765c.152,1.6-.96,3.743-3.4,6.563a76.027,76.027,0,0,1-7.716,7.459c-5.567,4.792-11.279,8.906-11.336,8.947ZM172,27.021l1.266,1.226c1.513-1.109,6.173-4.578,10.733-8.5a74.526,74.526,0,0,0,7.556-7.3c1.459-1.687,3.169-4,3.039-5.426a2.354,2.354,0,0,0-.638-.87,2.176,2.176,0,0,0-.884-.59h-.008a.856.856,0,0,0-.087,0c-.547,0-1.935.427-5.083,3.288a94.2,94.2,0,0,0-7.255,7.6C176.71,20.949,173.165,25.5,172,27.021Z" transform="translate(-160.349 -3.581)" fill="#bee4ff"/>
    <path id="Path_220" data-name="Path 220" d="M166.865,31.822h0c-.865,0-2.42-.088-2.486-.092l-1.176-.067.559-1.037a21.292,21.292,0,0,0,1.634-4.644l0-.014a9.92,9.92,0,0,0,.3-2.109,3.294,3.294,0,0,1,.6-2.055,4.635,4.635,0,0,1,4-1.624q.157,0,.32.005l.021-.05h.5a.675.675,0,0,1,.53.225l0,0,.147.147.089.089,1.845,1.844a2.568,2.568,0,0,1,.655.677l.025.04a3.3,3.3,0,0,1-.094,2.971,9.74,9.74,0,0,1-2.561,3.371,10.331,10.331,0,0,1-4.274,2.284l-.056.012A3.582,3.582,0,0,1,166.865,31.822Zm-1.294-1.535c.447.019.939.035,1.294.035h0c.2,0,.292-.005.328-.008a8.845,8.845,0,0,0,3.6-1.947,8.342,8.342,0,0,0,2.167-2.829,2.093,2.093,0,0,0,.185-1.614,1.179,1.179,0,0,0-.21-.229l-.092-.046-.086-.085L170.9,21.7c-.206-.014-.406-.02-.6-.02a3.262,3.262,0,0,0-2.791,1.011l-.013.018c-.236.307-.261.557-.3,1.234a11.382,11.382,0,0,1-.348,2.392A25.2,25.2,0,0,1,165.57,30.287Z" transform="translate(-163.781 4.81)" fill="#bee4ff"/>
    <path id="Path_221" data-name="Path 221" d="M178.754,16.245l.467.4c.035.03,3.589,3.053,7.061,6.4,6.426,6.2,7.137,8.181,7.039,9.216l0,.036a2.754,2.754,0,0,1-1.9,1.91l-.047.008-.047,0-.085,0c-1.044,0-2.455-.743-4.443-2.339a62.333,62.333,0,0,1-5.217-4.842c-3.391-3.457-6.369-6.96-6.4-7l-.5-.594Zm13.075,15.84c0-.188-.15-.943-1.874-3.015a65.281,65.281,0,0,0-4.714-4.948c-2.7-2.608-5.457-5.015-6.526-5.939l-1.88,1.477c.987,1.137,3.289,3.748,5.823,6.331,5.8,5.913,7.879,6.688,8.534,6.724A1.71,1.71,0,0,0,191.828,32.085Z" transform="translate(-157.868 2.894)" fill="#bee4ff"/>
    <path id="Path_222" data-name="Path 222" d="M172.782,20.243l-.49-.353a56.242,56.242,0,0,1-4.484-3.656c-3.135-2.857-4.625-5.028-4.555-6.637V9.58c.113-1.7,1.917-3.546,2.468-4.071a7.048,7.048,0,0,1,4.245-2.259,2.413,2.413,0,0,1,.4.033c1.544.244,3.519,1.977,6.038,5.3,1.786,2.355,3.153,4.61,3.211,4.7l.321.531ZM164.751,9.67c-.018.516.35,2.065,4.058,5.447,1.541,1.405,3.109,2.62,3.876,3.2l5.322-4.777c-.51-.806-1.564-2.426-2.8-4.058-3.049-4.018-4.563-4.636-5.073-4.715l-.012,0a.907.907,0,0,0-.153-.012,5.962,5.962,0,0,0-3.21,1.844A6.138,6.138,0,0,0,164.751,9.67Z" transform="translate(-164 -4)" fill="#bee4ff"/>
    <path id="Path_223" data-name="Path 223" d="M175.349,17.078l-4.471-4.613,1.077-1.044,4.471,4.613Z" transform="translate(-160.13 0.144)" fill="#bee4ff"/>
  </g>
</svg>
