<svg xmlns="http://www.w3.org/2000/svg" xmlns:xlink="http://www.w3.org/1999/xlink" width="45.689" height="36" viewBox="0 0 45.689 36">
  <defs>
    <clipPath id="clip-path">
      <rect id="Rectangle_61" data-name="Rectangle 61" width="45.689" height="36" fill="#bee4ff"/>
    </clipPath>
  </defs>
  <g id="Group_176" data-name="Group 176" transform="translate(-7 55)">
    <g id="Group_175" data-name="Group 175" transform="translate(7 -55)" clip-path="url(#clip-path)">
      <path id="Path_268" data-name="Path 268" d="M79.126,0a17.976,17.976,0,0,1,1.948,1.038,2.63,2.63,0,0,1,1.132,1.914A6.37,6.37,0,0,0,85.6,7.535a11.613,11.613,0,0,0,7.8,1.254,1.135,1.135,0,0,1,1.311.6c3.53,5.523,7.11,11.014,10.6,16.563a17.182,17.182,0,0,1,1.228,3.217v.358a22.044,22.044,0,0,1-.976,2.665c-.885,1.726-2.188,2.034-3.825,1.007Q90.906,26.407,80.085,19.615q-4.92-3.083-9.858-6.139c-1.1-.687-1.11-.7-.453-1.777,1.832-3,3.718-5.963,5.473-9A5.008,5.008,0,0,1,78.589,0ZM72.549,9.423c.14.109.2.17.279.217,4.035,2.535,8.067,5.076,12.12,7.582a1.153,1.153,0,0,0,.943-.041c1.465-.731,2.905-1.513,4.352-2.281,1.622-.862,3.241-1.728,4.9-2.612-.371-.581-.728-1.061-1-1.585a1.147,1.147,0,0,0-1.363-.656,12.4,12.4,0,0,1-7.458-1.309,7.785,7.785,0,0,1-4.284-5.522,2.209,2.209,0,0,0-1.731-1.8,2.117,2.117,0,0,0-2.413.933c-1.449,2.321-2.866,4.662-4.344,7.073m-1.817,2.948c.353.231.619.413.892.583q5.34,3.334,10.682,6.666,9.952,6.237,19.9,12.486c1.294.812,2.054.5,2.516-1.085L71.907,10.494l-1.176,1.877M105.2,29.919a4.633,4.633,0,0,0-.878-3.343c-1.1-1.767-2.235-3.512-3.361-5.262-.592-.921-1.2-1.835-1.838-2.819L92.529,21.97,105.2,29.919M86.629,18.178c1.462,1.28,1.541,1.293,3.068.487q2.8-1.48,5.6-2.966c.486-.258.967-.526,1.508-.82l-1.03-1.554-9.149,4.854m2.948,1.893c.323.223.55.359.753.525a1.545,1.545,0,0,0,2.066.114c1.018-.659,2.155-1.136,3.234-1.7.938-.492,1.867-1,2.85-1.527l-1.025-1.554-7.879,4.144" transform="translate(-60.839)" fill="#bee4ff"/>
      <path id="Path_269" data-name="Path 269" d="M0,112.5c11.259,4.93,22.179,10.142,32.821,15.939-1.478-.678-2.952-1.366-4.436-2.031C19.57,122.449,10.557,119,1.445,115.795,0,115.287,0,115.283,0,113.788V112.5" transform="translate(0 -98.719)" fill="#bee4ff"/>
      <path id="Path_270" data-name="Path 270" d="M72.556,236.839c-10.841-3.23-22-4.536-33.228-5.652v-2.321c11.175,2.343,22.457,4.11,33.228,7.973" transform="translate(-34.512 -200.839)" fill="#bee4ff"/>
      <path id="Path_271" data-name="Path 271" d="M49.425,189.539c-2.8-.9-5.574-1.905-8.411-2.677-6.814-1.854-13.659-3.6-20.491-5.385-.2-.053-.4-.105-.605-.16-1.7-.463-1.708-.472-1.389-2.37,10.357,3.408,20.823,6.463,30.9,10.592" transform="translate(-16.117 -157.033)" fill="#bee4ff"/>
      <path id="Path_272" data-name="Path 272" d="M133.412,50.676a2.449,2.449,0,1,1-4.9-.073,2.448,2.448,0,0,1,4.9.073m-1.218.043a1.237,1.237,0,1,0-2.472-.115,1.281,1.281,0,0,0,1.181,1.309,1.266,1.266,0,0,0,1.292-1.193" transform="translate(-112.778 -42.309)" fill="#bee4ff"/>
    </g>
  </g>
</svg>
