<svg xmlns="http://www.w3.org/2000/svg" width="41.499" height="41.5" viewBox="0 0 41.499 41.5">
  <g id="Group_96" data-name="Group 96" transform="translate(0.75 0.75)">
    <path id="Path_227" data-name="Path 227" d="M235.765,29.927a10.162,10.162,0,1,1,10.162-10.162A10.173,10.173,0,0,1,235.765,29.927Zm0-18.824a8.662,8.662,0,1,0,8.662,8.662A8.672,8.672,0,0,0,235.765,11.1Z" transform="translate(-215.764 0.236)" fill="#bee4ff"/>
    <path id="Path_228" data-name="Path 228" d="M231.765,11.025a.75.75,0,0,1-.75-.75V4a.75.75,0,0,1,1.5,0v6.275A.75.75,0,0,1,231.765,11.025Z" transform="translate(-212.156 -4)" fill="#bee4ff"/>
    <path id="Path_229" data-name="Path 229" d="M231.765,31.259a.75.75,0,0,1-.75-.75V24.235a.75.75,0,0,1,1.5,0v6.274A.75.75,0,0,1,231.765,31.259Z" transform="translate(-212.156 9.491)" fill="#bee4ff"/>
    <path id="Path_230" data-name="Path 230" d="M246.509,16.515h-6.273a.75.75,0,1,1,0-1.5h6.273a.75.75,0,1,1,0,1.5Z" transform="translate(-206.509 3.844)" fill="#bee4ff"/>
    <path id="Path_231" data-name="Path 231" d="M226.275,16.515H220a.75.75,0,1,1,0-1.5h6.275a.75.75,0,1,1,0,1.5Z" transform="translate(-220 3.844)" fill="#bee4ff"/>
    <path id="Path_232" data-name="Path 232" d="M227.813,12.42a.748.748,0,0,1-.53-.22L222.811,7.73a.75.75,0,0,1,1.061-1.061l4.472,4.471a.75.75,0,0,1-.53,1.28Z" transform="translate(-217.774 -1.867)" fill="#bee4ff"/>
    <path id="Path_233" data-name="Path 233" d="M242.118,26.727a.748.748,0,0,1-.53-.22l-4.472-4.471a.75.75,0,0,1,1.061-1.061l4.472,4.471a.75.75,0,0,1-.53,1.28Z" transform="translate(-208.236 7.671)" fill="#bee4ff"/>
    <path id="Path_234" data-name="Path 234" d="M237.646,12.091a.75.75,0,0,1-.53-1.28l4.472-4.471A.75.75,0,0,1,242.648,7.4l-4.472,4.471A.748.748,0,0,1,237.646,12.091Z" transform="translate(-208.236 -2.086)" fill="#bee4ff"/>
    <path id="Path_235" data-name="Path 235" d="M223.341,26.4a.75.75,0,0,1-.53-1.28l4.472-4.471a.75.75,0,0,1,1.061,1.061l-4.472,4.471A.748.748,0,0,1,223.341,26.4Z" transform="translate(-217.774 7.452)" fill="#bee4ff"/>
  </g>
</svg>
