<svg xmlns="http://www.w3.org/2000/svg" width="43.5" height="40.404" viewBox="0 0 43.5 40.404">
  <g id="Group_152" data-name="Group 152" transform="translate(0.75 0.75)">
    <path id="Path_209" data-name="Path 209" d="M144.139,38.917a.749.749,0,0,1-.589-.285l-4-5.055,1.177-.93,3.531,4.467,28.715-22.7-3.6-4.461,1.168-.941,4.072,5.051a.75.75,0,0,1-.119,1.059l-29.9,23.63A.747.747,0,0,1,144.139,38.917Z" transform="translate(-132.036 0.737)" fill="#bee4ff"/>
    <path id="Path_210" data-name="Path 210" d="M138.157,31.849l-3.747-4.755a.75.75,0,0,1,.124-1.053l29.9-23.63a.75.75,0,0,1,1.051.12l3.745,4.683-1.171.937-3.279-4.1-28.726,22.7,3.283,4.167Z" transform="translate(-135 -3)" fill="#bee4ff"/>
    <path id="Path_211" data-name="Path 211" d="M159.725,14.17a5.094,5.094,0,0,1-3.973-1.914l-.011-.014a5.081,5.081,0,0,1,.845-7.092l.942,1.167a3.559,3.559,0,1,0,4.4,5.594l.915,1.189A5.1,5.1,0,0,1,159.725,14.17Z" transform="translate(-124.204 -1.555)" fill="#bee4ff"/>
    <path id="Path_212" data-name="Path 212" d="M142.64,29.052l-.942-1.167a3.56,3.56,0,1,0-4.4-5.594L136.38,21.1a5.081,5.081,0,0,1,7.092.844l.011.014A5.08,5.08,0,0,1,142.64,29.052Z" transform="translate(-134.028 6.401)" fill="#bee4ff"/>
    <path id="Path_213" data-name="Path 213" d="M151.571,11.443a.749.749,0,0,1-.586-.281l-1.441-1.8a.75.75,0,1,1,1.171-.937l1.441,1.8a.75.75,0,0,1-.585,1.219Z" transform="translate(-127.004 0.114)" fill="#bee4ff"/>
    <path id="Path_214" data-name="Path 214" d="M154.34,15.018a.749.749,0,0,1-.6-.295l-2.09-2.738a.75.75,0,0,1,1.192-.91l2.09,2.738a.75.75,0,0,1-.6,1.205Z" transform="translate(-125.882 1.509)" fill="#bee4ff"/>
    <path id="Path_215" data-name="Path 215" d="M156.329,17.475a.749.749,0,0,1-.586-.282l-1.44-1.8a.75.75,0,0,1,1.172-.937l1.44,1.8a.75.75,0,0,1-.585,1.218Z" transform="translate(-124.488 3.303)" fill="#bee4ff"/>
    <path id="Path_216" data-name="Path 216" d="M151.2,11.524l-3.17-4.107,1.187-.917,3.17,4.107Z" transform="translate(-127.801 -0.907)" fill="#bee4ff"/>
    <path id="Path_217" data-name="Path 217" d="M157.546,19.429,154.3,15.394l1.169-.94,3.242,4.034Z" transform="translate(-124.488 3.303)" fill="#bee4ff"/>
    <path id="Path_218" data-name="Path 218" d="M151.788,13.373a.75.75,0,0,1,.743.856l-.446,3.132,2.364,2.11a.75.75,0,0,1-.364,1.3l-3.137.576-1.282,2.948a.75.75,0,0,1-1.346.06l-1.54-2.823-3.136-.32a.75.75,0,0,1-.469-1.261l2.181-2.31-.642-3.149a.75.75,0,0,1,1.064-.824l2.882,1.409,2.75-1.6A.749.749,0,0,1,151.788,13.373Zm.519,6.2-1.521-1.357a.75.75,0,0,1-.243-.665l.285-2-1.759,1.023a.75.75,0,0,1-.706.025l-1.873-.916.416,2.037a.75.75,0,0,1-.19.665l-1.4,1.487,2.016.206a.75.75,0,0,1,.582.387l.994,1.823.83-1.907a.75.75,0,0,1,.552-.439Z" transform="translate(-130.391 2.879)" fill="#bee4ff"/>
  </g>
</svg>
