<svg width="198" height="87" viewBox="0 0 198 87" fill="none" xmlns="http://www.w3.org/2000/svg">
<path d="M22.4799 76.18C22.6399 76.18 22.7999 76.16 22.9599 76.12C23.2799 76.04 23.4399 75.9 23.4399 75.7C23.4399 75.62 23.3799 75.48 23.2599 75.28C23.1399 75.04 22.9999 74.7 22.8399 74.26C22.7199 73.78 22.5999 73.2 22.4799 72.52C22.3599 71.8 22.2999 70.94 22.2999 69.94C22.2999 67.54 22.4199 64.82 22.6599 61.78C22.8999 58.7 23.1999 55.64 23.5599 52.6C23.9599 49.56 24.3799 46.7 24.8199 44.02C25.2599 41.3 25.6999 39.12 26.1399 37.48C25.0199 37.6 23.8999 37.7 22.7799 37.78C21.6599 37.86 20.5199 37.9 19.3599 37.9C17.8799 37.9 16.4999 37.78 15.2199 37.54C13.9799 37.3 12.8799 37 11.9199 36.64C10.9999 36.28 10.2599 35.88 9.69991 35.44C9.17991 34.96 8.91991 34.5 8.91991 34.06C8.91991 33.98 8.95991 33.9 9.03991 33.82C9.07991 33.78 9.13991 33.74 9.21991 33.7H10.6599C10.7399 33.7 10.8199 33.72 10.8999 33.76C10.9799 33.8 11.0599 33.84 11.1399 33.88C11.2199 33.96 11.2999 34.02 11.3799 34.06C11.6199 34.1 11.8599 34.12 12.0999 34.12C12.3799 34.12 12.6799 34.12 12.9999 34.12C15.4799 34.12 17.9999 33.9 20.5599 33.46C23.1199 33.02 25.6799 32.54 28.2399 32.02C30.7999 31.46 33.3399 30.96 35.8599 30.52C38.4199 30.04 40.8999 29.8 43.2999 29.8C43.8599 29.8 44.2999 29.82 44.6199 29.86C44.9399 29.9 45.1799 29.94 45.3399 29.98C45.4999 30.06 45.5999 30.12 45.6399 30.16C45.7199 30.28 45.9599 30.54 46.3599 30.94C46.7999 31.34 47.2399 31.78 47.6799 32.26C48.1599 32.74 48.5799 33.18 48.9399 33.58C49.2999 33.98 49.4799 34.24 49.4799 34.36C49.4799 34.48 49.4399 34.54 49.3599 34.54H49.2999H48.3999C45.0399 34.54 41.8399 34.82 38.7999 35.38C35.7599 35.94 32.7199 36.46 29.6799 36.94C29.5599 37.18 29.4999 37.44 29.4999 37.72C29.4999 44.04 29.4399 50.24 29.3199 56.32C29.1999 62.4 29.1399 68.48 29.1399 74.56C29.1399 74.64 29.1599 74.72 29.1999 74.8C29.2799 75 29.3999 75.1 29.5599 75.1C29.9599 75.18 30.5599 75.26 31.3599 75.34C32.1599 75.38 32.9799 75.44 33.8199 75.52C34.6999 75.56 35.4999 75.62 36.2199 75.7C36.9799 75.78 37.4999 75.86 37.7799 75.94C37.8599 75.98 37.9999 76.08 38.1999 76.24C38.4399 76.4 38.6199 76.52 38.7399 76.6C38.7799 76.64 38.8799 76.68 39.0399 76.72C39.2399 76.72 39.4399 76.74 39.6399 76.78C39.8399 76.78 40.0199 76.8 40.1799 76.84C40.3399 76.88 40.4599 76.92 40.5399 76.96L41.4399 77.86C41.5999 78.1 41.8999 78.36 42.3399 78.64C42.7799 78.88 43.2199 79.12 43.6599 79.36C44.0999 79.6 44.4799 79.8 44.7999 79.96C45.1599 80.12 45.3399 80.2 45.3399 80.2L45.3999 80.26C45.3999 80.3 45.3999 80.34 45.3999 80.38C45.4399 80.42 45.4599 80.46 45.4599 80.5C45.4599 80.66 45.3399 80.8 45.0999 80.92C44.8599 81.04 44.6799 81.1 44.5599 81.1C44.3599 81.1 43.9999 81.08 43.4799 81.04C42.9999 81 42.4199 80.96 41.7399 80.92C41.0999 80.88 40.4199 80.84 39.6999 80.8C39.0199 80.76 38.3999 80.74 37.8399 80.74C35.6399 80.74 33.2599 80.82 30.6999 80.98C28.1399 81.18 25.5399 81.44 22.8999 81.76C20.2999 82.12 17.7199 82.52 15.1599 82.96C12.5999 83.44 10.2399 83.96 8.07991 84.52C7.51991 84.52 7.01991 84.42 6.57991 84.22C6.17991 84.02 5.85991 83.8 5.61991 83.56C5.29991 83.28 5.05991 82.94 4.89991 82.54C4.89991 82.34 4.91991 82.2 4.95991 82.12C5.03991 82.04 5.25991 81.9 5.61991 81.7C7.89991 80.54 10.5599 79.48 13.5999 78.52C16.6399 77.52 19.5999 76.74 22.4799 76.18ZM41.7345 61.3C41.6145 61.42 41.4545 61.48 41.2545 61.48C40.8545 61.48 40.6545 61.28 40.6545 60.88C40.6545 60.8 40.6745 60.72 40.7145 60.64C41.7145 59.4 42.7745 58.38 43.8945 57.58C45.0145 56.74 46.0745 56.32 47.0745 56.32C47.7545 56.32 48.2945 56.5 48.6945 56.86C49.1345 57.18 49.4745 57.62 49.7145 58.18C49.9545 58.74 50.1145 59.4 50.1945 60.16C50.3145 60.88 50.3745 61.66 50.3745 62.5C50.3745 63.9 50.2945 65.3 50.1345 66.7C50.0145 68.1 49.9345 69.3 49.8945 70.3C50.3745 69.26 50.8745 68.08 51.3945 66.76C51.9145 65.4 52.4745 64.06 53.0745 62.74C53.7145 61.38 54.3945 60.1 55.1145 58.9C55.8345 57.66 56.6345 56.62 57.5145 55.78C57.6745 55.66 57.8345 55.6 57.9945 55.6C58.1545 55.6 58.3945 55.68 58.7145 55.84C59.0345 56 59.3345 56.18 59.6145 56.38C59.9345 56.58 60.1945 56.82 60.3945 57.1C60.6345 57.34 60.7545 57.54 60.7545 57.7C60.7545 57.82 60.7345 57.92 60.6945 58C60.3345 58.84 60.0145 59.78 59.7345 60.82C59.4545 61.86 59.2345 62.94 59.0745 64.06C58.9145 65.18 58.7945 66.28 58.7145 67.36C58.6345 68.44 58.5945 69.42 58.5945 70.3C58.5945 72.06 58.8345 73.5 59.3145 74.62C59.8345 75.74 60.5545 76.3 61.4745 76.3C62.2745 76.3 63.1745 75.78 64.1745 74.74H64.2345C64.2745 74.74 64.2945 74.74 64.2945 74.74C64.3345 74.7 64.3745 74.68 64.4145 74.68C64.5345 74.68 64.5945 74.74 64.5945 74.86C64.5945 75.46 64.4545 76.06 64.1745 76.66C63.8945 77.26 63.5145 77.78 63.0345 78.22C62.5545 78.66 62.0145 79.02 61.4145 79.3C60.8545 79.58 60.2745 79.72 59.6745 79.72C58.3545 79.72 57.3145 79.14 56.5545 77.98C55.8345 76.82 55.2745 75.48 54.8745 73.96C54.5145 72.4 54.2745 70.86 54.1545 69.34C54.0745 67.82 54.0345 66.68 54.0345 65.92C53.3145 66.72 52.6745 67.78 52.1145 69.1C51.5545 70.42 51.0545 71.82 50.6145 73.3C50.1745 74.74 49.7745 76.18 49.4145 77.62C49.0545 79.02 48.7145 80.22 48.3945 81.22C48.3945 81.42 48.2945 81.56 48.0945 81.64C47.9345 81.76 47.7345 81.82 47.4945 81.82C47.1745 81.82 46.8345 81.74 46.4745 81.58C46.1145 81.46 45.8945 81.3 45.8145 81.1C45.6945 80.82 45.4745 80.68 45.1545 80.68C44.8345 80.68 44.6745 80.52 44.6745 80.2C44.6745 80.12 44.6745 80.02 44.6745 79.9C44.6745 79.82 44.6945 79.74 44.7345 79.66C44.8545 79.06 44.9545 78 45.0345 76.48C45.1545 74.96 45.2945 73.24 45.4545 71.32C45.4945 70.68 45.5545 69.94 45.6345 69.1C45.7145 68.22 45.7745 67.34 45.8145 66.46C45.8945 65.54 45.9545 64.64 45.9945 63.76C46.0345 62.84 46.0545 62.02 46.0545 61.3C46.0545 60.38 45.9545 59.74 45.7545 59.38C45.5545 59.02 45.2945 58.84 44.9745 58.84C44.5345 58.84 44.0145 59.1 43.4145 59.62C42.8545 60.1 42.2945 60.66 41.7345 61.3ZM69.4575 40.84C69.5375 40.76 69.6175 40.68 69.6975 40.6C69.8175 40.52 69.9575 40.48 70.1175 40.48C70.2375 40.48 70.3175 40.5 70.3575 40.54C70.6775 40.78 71.0775 40.96 71.5575 41.08C72.0375 41.2 72.4975 41.32 72.9375 41.44C73.3775 41.56 73.7375 41.72 74.0175 41.92C74.3375 42.08 74.4975 42.32 74.4975 42.64C74.2175 44.08 73.9375 45.44 73.6575 46.72C73.3775 48 73.0775 49.48 72.7575 51.16C74.3175 51.04 75.8375 50.88 77.3175 50.68C78.8375 50.48 80.2175 50.3 81.4575 50.14C82.6975 49.94 83.7375 49.78 84.5775 49.66C85.4175 49.5 85.9975 49.42 86.3175 49.42C86.6775 49.42 87.0575 49.44 87.4575 49.48C87.8575 49.52 88.0575 49.66 88.0575 49.9C88.0575 50.1 87.9175 50.24 87.6375 50.32C87.3975 50.36 87.2375 50.46 87.1575 50.62C86.9575 50.9 86.8175 51.18 86.7375 51.46C86.6975 51.58 86.6575 51.68 86.6175 51.76C86.3375 51.88 85.7175 52.08 84.7575 52.36C83.8375 52.6 82.6975 52.88 81.3375 53.2C79.9775 53.48 78.4775 53.78 76.8375 54.1C75.2375 54.42 73.6175 54.7 71.9775 54.94C71.4175 57.82 70.9175 61 70.4775 64.48C70.0775 67.96 69.8775 71.64 69.8775 75.52C69.8775 76.44 70.0575 77.14 70.4175 77.62C70.7775 78.1 71.2175 78.34 71.7375 78.34C72.2975 78.34 72.8975 78.04 73.5375 77.44C74.1775 76.8 74.6975 75.84 75.0975 74.56C75.1775 74.32 75.3575 74.2 75.6375 74.2C75.7975 74.2 75.8775 74.26 75.8775 74.38C75.9175 74.5 75.9375 74.6 75.9375 74.68C75.4975 76.96 74.8175 78.6 73.8975 79.6C72.9775 80.64 71.9975 81.16 70.9575 81.16C70.0375 81.16 69.2575 80.86 68.6175 80.26C68.0175 79.66 67.5175 78.84 67.1175 77.8C66.7575 76.72 66.4975 75.46 66.3375 74.02C66.1775 72.58 66.0975 71.02 66.0975 69.34C66.0975 67.3 66.1975 65.04 66.3975 62.56C66.6375 60.08 66.8975 57.74 67.1775 55.54C66.4975 55.62 65.8375 55.68 65.1975 55.72C64.5575 55.76 63.9575 55.78 63.3975 55.78C61.7975 55.78 60.6175 55.48 59.8575 54.88C59.0975 54.28 58.7175 53.16 58.7175 51.52C58.7175 51.24 58.7575 50.94 58.8375 50.62C58.9175 50.26 59.0575 50.08 59.2575 50.08C59.3775 50.08 59.4975 50.16 59.6175 50.32C60.5375 50.72 61.6575 51 62.9775 51.16C64.2575 51.32 65.6575 51.4 67.1775 51.4H67.7775C68.2175 48.52 68.5975 46.16 68.9175 44.32C69.2775 42.48 69.4575 41.32 69.4575 40.84ZM85.5396 78.58C86.1396 78.58 86.7196 78.42 87.2796 78.1C87.8396 77.74 88.3396 77.26 88.7796 76.66C89.2196 76.06 89.5796 75.36 89.8596 74.56C90.1396 73.72 90.2796 72.82 90.2796 71.86C90.2796 70.86 90.0996 69.78 89.7396 68.62C89.7396 68.58 89.7596 68.52 89.7996 68.44C89.8796 68.32 90.0996 68.26 90.4596 68.26C91.0196 68.26 91.4596 68.4 91.7796 68.68C92.1396 68.96 92.4196 69.32 92.6196 69.76C92.8196 70.2 92.9596 70.7 93.0396 71.26C93.1196 71.78 93.1596 72.3 93.1596 72.82C93.1596 73.9 92.9596 74.94 92.5596 75.94C92.1596 76.94 91.6196 77.84 90.9396 78.64C90.2596 79.44 89.4396 80.08 88.4796 80.56C87.5596 81.04 86.5396 81.28 85.4196 81.28C83.8596 81.28 82.5196 80.96 81.3996 80.32C80.3196 79.68 79.4196 78.84 78.6996 77.8C78.0196 76.76 77.4996 75.56 77.1396 74.2C76.8196 72.8 76.6596 71.34 76.6596 69.82C76.6596 68.02 76.8796 66.22 77.3196 64.42C77.7996 62.58 78.4596 60.94 79.2996 59.5C80.1396 58.02 81.1396 56.84 82.2996 55.96C83.4996 55.04 84.8196 54.58 86.2596 54.58C87.6196 54.58 88.6596 55.02 89.3796 55.9C90.0996 56.78 90.4596 57.92 90.4596 59.32C90.4596 60.24 90.2796 61.24 89.9196 62.32C89.5596 63.4 88.9996 64.48 88.2396 65.56C87.5196 66.64 86.5796 67.72 85.4196 68.8C84.2996 69.84 82.9596 70.8 81.3996 71.68C81.5996 74.2 82.0796 75.98 82.8396 77.02C83.6396 78.06 84.5396 78.58 85.5396 78.58ZM86.9796 59.2C86.9796 58.92 86.8996 58.66 86.7396 58.42C86.6196 58.18 86.3996 58.06 86.0796 58.06C85.3996 58.06 84.7796 58.4 84.2196 59.08C83.6596 59.72 83.1596 60.56 82.7196 61.6C82.3196 62.64 81.9996 63.84 81.7596 65.2C81.5196 66.52 81.3796 67.84 81.3396 69.16C81.9396 68.76 82.5596 68.16 83.1996 67.36C83.8796 66.52 84.4996 65.62 85.0596 64.66C85.6196 63.7 86.0796 62.74 86.4396 61.78C86.7996 60.78 86.9796 59.92 86.9796 59.2ZM99.2638 64.78C98.9038 64.78 98.6238 64.76 98.4238 64.72C98.2638 65.52 98.0838 66.44 97.8838 67.48C97.7238 68.52 97.5238 69.62 97.2838 70.78C97.0438 71.02 96.8038 71.14 96.5638 71.14C96.3238 71.14 96.0438 71.06 95.7238 70.9C95.5638 70.82 95.4438 70.74 95.3638 70.66C95.6038 69.5 95.8238 68.36 96.0238 67.24C96.2238 66.08 96.4238 64.94 96.6238 63.82C95.8638 63.18 95.3038 62.34 94.9438 61.3C94.6238 60.26 94.4638 59.22 94.4638 58.18C94.4638 56.94 94.7038 55.86 95.1838 54.94C95.6638 53.98 96.3638 53.5 97.2838 53.5C98.2038 53.5 98.8038 53.78 99.0838 54.34C99.3638 54.86 99.5038 55.5 99.5038 56.26C99.5038 56.9 99.4438 57.58 99.3238 58.3C99.2438 58.98 99.2038 59.6 99.2038 60.16C99.2038 61.12 99.3838 61.6 99.7438 61.6C99.9438 61.6 100.384 61.4 101.064 61C101.584 60.64 102.144 60.2 102.744 59.68C103.384 59.16 103.984 58.64 104.544 58.12C105.104 57.6 105.584 57.16 105.984 56.8C106.424 56.44 106.704 56.26 106.824 56.26C107.024 56.26 107.224 56.36 107.424 56.56C107.664 56.72 107.884 56.92 108.084 57.16C108.284 57.4 108.444 57.66 108.564 57.94C108.724 58.22 108.804 58.46 108.804 58.66C108.804 58.86 108.764 59.04 108.684 59.2C108.644 59.28 108.624 59.36 108.624 59.44C108.384 60 108.184 60.52 108.024 61C107.864 61.44 107.684 61.88 107.484 62.32C107.324 62.72 107.204 63.04 107.124 63.28C106.444 64.96 105.944 66.52 105.624 67.96C105.344 69.4 105.204 70.7 105.204 71.86C105.204 73.46 105.424 74.72 105.864 75.64C106.344 76.56 106.924 77.02 107.604 77.02C108.204 77.02 108.844 76.64 109.524 75.88C110.204 75.08 110.884 73.8 111.564 72.04C111.644 71.84 111.704 71.66 111.744 71.5C111.784 71.34 112.004 71.12 112.404 70.84C112.564 70.72 112.684 70.66 112.764 70.66C112.884 70.66 112.944 70.74 112.944 70.9C112.944 70.94 112.924 70.98 112.884 71.02C112.884 71.02 112.884 71.04 112.884 71.08V71.2C112.764 72.08 112.524 73.12 112.164 74.32C111.844 75.48 111.384 76.58 110.784 77.62C110.184 78.66 109.444 79.54 108.564 80.26C107.724 81.02 106.724 81.4 105.564 81.4C104.724 81.4 104.024 81.2 103.464 80.8C102.944 80.4 102.524 79.86 102.204 79.18C101.884 78.54 101.644 77.78 101.484 76.9C101.364 76.02 101.304 75.1 101.304 74.14C101.304 73.18 101.344 72.22 101.424 71.26C101.544 70.26 101.684 69.32 101.844 68.44C102.004 67.52 102.164 66.68 102.324 65.92C102.524 65.16 102.684 64.54 102.804 64.06C102.324 64.3 101.764 64.48 101.124 64.6C100.524 64.72 99.9038 64.78 99.2638 64.78ZM120.565 78.58C121.165 78.58 121.745 78.42 122.305 78.1C122.865 77.74 123.365 77.26 123.805 76.66C124.245 76.06 124.605 75.36 124.885 74.56C125.165 73.72 125.305 72.82 125.305 71.86C125.305 70.86 125.125 69.78 124.765 68.62C124.765 68.58 124.785 68.52 124.825 68.44C124.905 68.32 125.125 68.26 125.485 68.26C126.045 68.26 126.485 68.4 126.805 68.68C127.165 68.96 127.445 69.32 127.645 69.76C127.845 70.2 127.985 70.7 128.065 71.26C128.145 71.78 128.185 72.3 128.185 72.82C128.185 73.9 127.985 74.94 127.585 75.94C127.185 76.94 126.645 77.84 125.965 78.64C125.285 79.44 124.465 80.08 123.505 80.56C122.585 81.04 121.565 81.28 120.445 81.28C118.885 81.28 117.545 80.96 116.425 80.32C115.345 79.68 114.445 78.84 113.725 77.8C113.045 76.76 112.525 75.56 112.165 74.2C111.845 72.8 111.685 71.34 111.685 69.82C111.685 68.02 111.905 66.22 112.345 64.42C112.825 62.58 113.485 60.94 114.325 59.5C115.165 58.02 116.165 56.84 117.325 55.96C118.525 55.04 119.845 54.58 121.285 54.58C122.645 54.58 123.685 55.02 124.405 55.9C125.125 56.78 125.485 57.92 125.485 59.32C125.485 60.24 125.305 61.24 124.945 62.32C124.585 63.4 124.025 64.48 123.265 65.56C122.545 66.64 121.605 67.72 120.445 68.8C119.325 69.84 117.985 70.8 116.425 71.68C116.625 74.2 117.105 75.98 117.865 77.02C118.665 78.06 119.565 78.58 120.565 78.58ZM122.005 59.2C122.005 58.92 121.925 58.66 121.765 58.42C121.645 58.18 121.425 58.06 121.105 58.06C120.425 58.06 119.805 58.4 119.245 59.08C118.685 59.72 118.185 60.56 117.745 61.6C117.345 62.64 117.025 63.84 116.785 65.2C116.545 66.52 116.405 67.84 116.365 69.16C116.965 68.76 117.585 68.16 118.225 67.36C118.905 66.52 119.525 65.62 120.085 64.66C120.645 63.7 121.105 62.74 121.465 61.78C121.825 60.78 122.005 59.92 122.005 59.2ZM129.683 70.42C130.243 68.82 130.763 67.2 131.243 65.56C131.763 63.92 132.203 62.38 132.563 60.94C132.963 59.5 133.283 58.2 133.523 57.04C133.763 55.88 133.923 54.96 134.003 54.28C134.043 53.96 134.203 53.66 134.483 53.38C134.803 53.06 135.143 52.8 135.503 52.6C135.903 52.36 136.303 52.18 136.703 52.06C137.103 51.9 137.423 51.82 137.663 51.82C137.743 51.82 137.843 51.84 137.963 51.88C138.083 51.92 138.143 52 138.143 52.12C138.143 52.12 138.083 52.36 137.963 52.84C137.883 53.32 137.783 53.96 137.663 54.76C137.583 55.52 137.483 56.42 137.363 57.46C137.283 58.46 137.243 59.54 137.243 60.7C137.243 61.78 137.463 62.92 137.903 64.12C138.343 65.28 138.823 66.48 139.343 67.72C139.903 68.96 140.403 70.2 140.843 71.44C141.323 72.68 141.563 73.92 141.563 75.16C141.563 76.28 141.383 77.26 141.023 78.1C140.703 78.9 140.263 79.58 139.703 80.14C139.183 80.7 138.563 81.12 137.843 81.4C137.163 81.68 136.483 81.82 135.803 81.82C134.643 81.82 133.603 81.42 132.683 80.62C131.803 79.86 131.363 78.7 131.363 77.14C131.363 76.26 131.463 75.5 131.663 74.86C131.863 74.22 132.063 73.9 132.263 73.9C132.343 73.9 132.403 73.94 132.443 74.02C132.683 74.54 132.863 75.06 132.983 75.58C133.103 76.1 133.243 76.58 133.403 77.02C133.563 77.42 133.743 77.76 133.943 78.04C134.143 78.28 134.423 78.4 134.783 78.4C135.743 78.4 136.423 78.1 136.823 77.5C137.223 76.9 137.423 76.14 137.423 75.22C137.423 74.22 137.243 73.1 136.883 71.86C136.563 70.58 136.203 69.36 135.803 68.2C135.443 67.04 135.083 66 134.723 65.08C134.403 64.12 134.243 63.46 134.243 63.1C133.923 63.74 133.523 64.76 133.043 66.16C132.563 67.56 132.023 69.1 131.423 70.78C131.263 70.94 131.063 71.02 130.823 71.02C130.503 71.02 130.243 70.92 130.043 70.72C129.883 70.64 129.763 70.54 129.683 70.42ZM148.466 40.84C148.546 40.76 148.626 40.68 148.706 40.6C148.826 40.52 148.966 40.48 149.126 40.48C149.246 40.48 149.326 40.5 149.366 40.54C149.686 40.78 150.086 40.96 150.566 41.08C151.046 41.2 151.506 41.32 151.946 41.44C152.386 41.56 152.746 41.72 153.026 41.92C153.346 42.08 153.506 42.32 153.506 42.64C153.226 44.08 152.946 45.44 152.666 46.72C152.386 48 152.086 49.48 151.766 51.16C153.326 51.04 154.846 50.88 156.326 50.68C157.846 50.48 159.226 50.3 160.466 50.14C161.706 49.94 162.746 49.78 163.586 49.66C164.426 49.5 165.006 49.42 165.326 49.42C165.686 49.42 166.066 49.44 166.466 49.48C166.866 49.52 167.066 49.66 167.066 49.9C167.066 50.1 166.926 50.24 166.646 50.32C166.406 50.36 166.246 50.46 166.166 50.62C165.966 50.9 165.826 51.18 165.746 51.46C165.706 51.58 165.666 51.68 165.626 51.76C165.346 51.88 164.726 52.08 163.766 52.36C162.846 52.6 161.706 52.88 160.346 53.2C158.986 53.48 157.486 53.78 155.846 54.1C154.246 54.42 152.626 54.7 150.986 54.94C150.426 57.82 149.926 61 149.486 64.48C149.086 67.96 148.886 71.64 148.886 75.52C148.886 76.44 149.066 77.14 149.426 77.62C149.786 78.1 150.226 78.34 150.746 78.34C151.306 78.34 151.906 78.04 152.546 77.44C153.186 76.8 153.706 75.84 154.106 74.56C154.186 74.32 154.366 74.2 154.646 74.2C154.806 74.2 154.886 74.26 154.886 74.38C154.926 74.5 154.946 74.6 154.946 74.68C154.506 76.96 153.826 78.6 152.906 79.6C151.986 80.64 151.006 81.16 149.966 81.16C149.046 81.16 148.266 80.86 147.626 80.26C147.026 79.66 146.526 78.84 146.126 77.8C145.766 76.72 145.506 75.46 145.346 74.02C145.186 72.58 145.106 71.02 145.106 69.34C145.106 67.3 145.206 65.04 145.406 62.56C145.646 60.08 145.906 57.74 146.186 55.54C145.506 55.62 144.846 55.68 144.206 55.72C143.566 55.76 142.966 55.78 142.406 55.78C140.806 55.78 139.626 55.48 138.866 54.88C138.106 54.28 137.726 53.16 137.726 51.52C137.726 51.24 137.766 50.94 137.846 50.62C137.926 50.26 138.066 50.08 138.266 50.08C138.386 50.08 138.506 50.16 138.626 50.32C139.546 50.72 140.666 51 141.986 51.16C143.266 51.32 144.666 51.4 146.186 51.4H146.786C147.226 48.52 147.606 46.16 147.926 44.32C148.286 42.48 148.466 41.32 148.466 40.84ZM164.548 78.58C165.148 78.58 165.728 78.42 166.288 78.1C166.848 77.74 167.348 77.26 167.788 76.66C168.228 76.06 168.588 75.36 168.868 74.56C169.148 73.72 169.288 72.82 169.288 71.86C169.288 70.86 169.108 69.78 168.748 68.62C168.748 68.58 168.768 68.52 168.808 68.44C168.888 68.32 169.108 68.26 169.468 68.26C170.028 68.26 170.468 68.4 170.788 68.68C171.148 68.96 171.428 69.32 171.628 69.76C171.828 70.2 171.968 70.7 172.048 71.26C172.128 71.78 172.168 72.3 172.168 72.82C172.168 73.9 171.968 74.94 171.568 75.94C171.168 76.94 170.628 77.84 169.948 78.64C169.268 79.44 168.448 80.08 167.488 80.56C166.568 81.04 165.548 81.28 164.428 81.28C162.868 81.28 161.528 80.96 160.408 80.32C159.328 79.68 158.428 78.84 157.708 77.8C157.028 76.76 156.508 75.56 156.148 74.2C155.828 72.8 155.668 71.34 155.668 69.82C155.668 68.02 155.888 66.22 156.328 64.42C156.808 62.58 157.468 60.94 158.308 59.5C159.148 58.02 160.148 56.84 161.308 55.96C162.508 55.04 163.828 54.58 165.268 54.58C166.628 54.58 167.668 55.02 168.388 55.9C169.108 56.78 169.468 57.92 169.468 59.32C169.468 60.24 169.288 61.24 168.928 62.32C168.568 63.4 168.008 64.48 167.248 65.56C166.528 66.64 165.588 67.72 164.428 68.8C163.308 69.84 161.968 70.8 160.408 71.68C160.608 74.2 161.088 75.98 161.848 77.02C162.648 78.06 163.548 78.58 164.548 78.58ZM165.988 59.2C165.988 58.92 165.908 58.66 165.748 58.42C165.628 58.18 165.408 58.06 165.088 58.06C164.408 58.06 163.788 58.4 163.228 59.08C162.668 59.72 162.168 60.56 161.728 61.6C161.328 62.64 161.008 63.84 160.768 65.2C160.528 66.52 160.388 67.84 160.348 69.16C160.948 68.76 161.568 68.16 162.208 67.36C162.888 66.52 163.508 65.62 164.068 64.66C164.628 63.7 165.088 62.74 165.448 61.78C165.808 60.78 165.988 59.92 165.988 59.2ZM189.447 33.64C189.527 33.56 189.607 33.48 189.687 33.4C189.807 33.32 189.947 33.28 190.107 33.28C190.227 33.28 190.307 33.3 190.347 33.34C190.667 33.58 191.067 33.76 191.547 33.88C192.027 34 192.487 34.12 192.927 34.24C193.367 34.36 193.727 34.52 194.007 34.72C194.327 34.88 194.487 35.12 194.487 35.44C194.487 35.76 194.387 36.44 194.187 37.48C193.987 38.52 193.727 39.82 193.407 41.38C193.127 42.9 192.807 44.64 192.447 46.6C192.127 48.56 191.807 50.62 191.487 52.78C191.207 54.9 190.967 57.08 190.767 59.32C190.567 61.52 190.467 63.66 190.467 65.74C190.467 67.38 190.527 68.94 190.647 70.42C190.807 71.9 191.067 73.26 191.427 74.5C191.787 75.7 192.247 76.76 192.807 77.68C193.367 78.6 194.067 79.32 194.907 79.84C195.067 79.96 195.147 80.1 195.147 80.26C195.147 80.66 194.987 80.86 194.667 80.86H194.607C192.487 80.42 190.847 79.3 189.687 77.5C188.567 75.7 187.767 73.46 187.287 70.78C186.887 72.18 186.407 73.52 185.847 74.8C185.327 76.04 184.747 77.14 184.107 78.1C183.467 79.06 182.767 79.82 182.007 80.38C181.287 80.94 180.547 81.22 179.787 81.22C178.667 81.22 177.707 80.98 176.907 80.5C176.107 80.02 175.447 79.38 174.927 78.58C174.407 77.78 174.027 76.84 173.787 75.76C173.547 74.64 173.427 73.48 173.427 72.28C173.427 70.48 173.667 68.64 174.147 66.76C174.627 64.84 175.307 63.1 176.187 61.54C177.067 59.94 178.107 58.64 179.307 57.64C180.507 56.64 181.827 56.14 183.267 56.14C184.747 56.14 185.927 56.58 186.807 57.46C186.927 55.22 187.087 52.98 187.287 50.74C187.527 48.5 187.787 46.34 188.067 44.26C188.347 42.18 188.607 40.24 188.847 38.44C189.087 36.64 189.287 35.04 189.447 33.64ZM186.387 62.74C186.387 61.86 186.227 61.22 185.907 60.82C185.587 60.38 185.147 60.16 184.587 60.16C183.907 60.16 183.147 60.48 182.307 61.12C181.507 61.72 180.727 62.62 179.967 63.82C179.207 65.02 178.567 66.48 178.047 68.2C177.567 69.92 177.327 71.88 177.327 74.08C177.327 75.6 177.507 76.72 177.867 77.44C178.267 78.12 178.747 78.46 179.307 78.46C179.947 78.46 180.667 78.06 181.467 77.26C182.307 76.42 183.087 75.3 183.807 73.9C184.527 72.46 185.127 70.78 185.607 68.86C186.127 66.94 186.387 64.9 186.387 62.74Z" fill="white"/>
</svg>
