<svg width="14" height="14" viewBox="0 0 14 14" fill="none" xmlns="http://www.w3.org/2000/svg">
<path d="M13.6048 0.407386C13.2546 0.0480202 12.7364 -0.0858618 12.2532 0.0550622L0.9856 3.33166C0.47579 3.4733 0.114443 3.87988 0.0171014 4.39639C-0.0823406 4.92205 0.265006 5.58935 0.718788 5.86838L4.24193 8.03376C4.60328 8.25573 5.06967 8.20008 5.36869 7.89845L9.40303 3.83901C9.6061 3.62762 9.94224 3.62762 10.1454 3.83901C10.3484 4.04336 10.3484 4.37455 10.1454 4.58594L6.104 8.64612C5.80426 8.94698 5.74826 9.41556 5.96883 9.77914L8.12154 13.3377C8.37361 13.7604 8.80782 14 9.28396 14C9.34003 14 9.40303 14 9.4591 13.9929C10.0053 13.9225 10.4395 13.5491 10.6005 13.0206L13.9409 1.76735C14.088 1.2882 13.9549 0.766759 13.6048 0.407386Z" fill="#686868"/>
</svg>
