<svg width="64" height="37" viewBox="0 0 64 37" fill="none" xmlns="http://www.w3.org/2000/svg">
<path d="M12.0563 6.66C12.0563 7.38 12.2763 8.11 12.7163 8.85C13.1763 9.57 13.7463 10.31 14.4263 11.07C15.1263 11.83 15.8663 12.61 16.6463 13.41C17.4463 14.19 18.1863 15.01 18.8663 15.87C19.5663 16.71 20.1363 17.59 20.5763 18.51C21.0363 19.41 21.2663 20.36 21.2663 21.36C21.2663 22.3 21.0763 23.1 20.6963 23.76C20.3363 24.42 19.8663 24.95 19.2863 25.35C18.7263 25.77 18.0963 26.07 17.3963 26.25C16.7163 26.43 16.0563 26.52 15.4163 26.52C13.8963 26.52 12.4763 26.28 11.1563 25.8C9.83628 25.32 8.63628 24.72 7.55628 24C6.47628 23.3 5.51628 22.54 4.67628 21.72C3.83628 20.88 3.12628 20.11 2.54628 19.41C1.96628 18.69 1.52628 18.09 1.22628 17.61C0.926284 17.13 0.786284 16.89 0.806284 16.89C0.826284 16.89 0.856284 16.84 0.896284 16.74C0.916284 16.62 0.976284 16.56 1.07628 16.56C1.17628 16.56 1.30628 16.63 1.46628 16.77C1.62628 16.89 1.84628 17.15 2.12628 17.55C2.18628 17.57 2.24628 17.58 2.30628 17.58H2.63628L3.14628 18.06C3.94628 18.82 4.83628 19.48 5.81628 20.04C6.79628 20.6 7.79628 21.07 8.81628 21.45C9.85628 21.83 10.8863 22.11 11.9063 22.29C12.9463 22.47 13.9163 22.56 14.8163 22.56C15.3363 22.56 15.8263 22.49 16.2863 22.35C16.7463 22.21 17.1463 22.01 17.4863 21.75C17.8463 21.47 18.1263 21.13 18.3263 20.73C18.5263 20.31 18.6263 19.84 18.6263 19.32C18.6263 18.94 18.4163 18.47 17.9963 17.91C17.5963 17.33 17.0863 16.69 16.4663 15.99C15.8463 15.29 15.1663 14.54 14.4263 13.74C13.7063 12.92 13.0363 12.08 12.4163 11.22C11.7963 10.34 11.2763 9.45 10.8563 8.55C10.4563 7.65 10.2563 6.75 10.2563 5.85C10.2563 4.99 10.4763 4.21 10.9163 3.51C11.3763 2.81 11.9663 2.21 12.6863 1.71C13.4063 1.21 14.2063 0.83 15.0863 0.569999C15.9863 0.309999 16.8763 0.179999 17.7563 0.179999C18.4163 0.179999 19.0463 0.259999 19.6463 0.42C20.2463 0.579999 20.7663 0.839998 21.2063 1.2C21.6663 1.54 22.0263 1.98 22.2863 2.52C22.5663 3.04 22.7063 3.67 22.7063 4.41C22.7063 5.25 22.6363 6.12 22.4963 7.02C22.3763 7.9 22.3163 8.76 22.3163 9.6C22.3163 9.8 22.3163 9.99 22.3163 10.17C22.3163 10.35 22.3363 10.53 22.3763 10.71C22.1563 10.69 21.9563 10.64 21.7763 10.56C21.6163 10.5 21.4763 10.41 21.3563 10.29C21.2363 10.15 21.1763 9.97 21.1763 9.75C20.1963 9.37 19.5363 9 19.1963 8.64C18.8763 8.28 18.7163 7.89 18.7163 7.47C18.7163 7.03 18.7963 6.54 18.9563 6C19.1363 5.44 19.2263 4.77 19.2263 3.99C19.2263 3.53 19.0163 3.19 18.5963 2.97C18.1763 2.75 17.6663 2.64 17.0663 2.64C16.5463 2.64 15.9863 2.73 15.3863 2.91C14.8063 3.07 14.2663 3.32 13.7663 3.66C13.2663 3.98 12.8563 4.4 12.5363 4.92C12.2163 5.42 12.0563 6 12.0563 6.66ZM31.1911 12.33C31.3911 12.33 31.6311 12.41 31.9111 12.57C32.1911 12.71 32.3311 12.85 32.3311 12.99C32.3311 13.03 32.3111 13.13 32.2711 13.29C32.2111 13.45 32.1411 13.77 32.0611 14.25C31.9811 14.71 31.9011 15.26 31.8211 15.9C31.7611 16.52 31.7011 17.19 31.6411 17.91C31.5811 18.63 31.5511 19.32 31.5511 19.98C31.5511 20.94 31.6411 21.75 31.8211 22.41C32.0011 23.05 32.2811 23.37 32.6611 23.37C33.0611 23.37 33.5511 22.94 34.1311 22.08C34.1711 22 34.2411 21.9 34.3411 21.78C34.4411 21.64 34.5111 21.57 34.5511 21.57C34.5711 21.57 34.5811 21.6 34.5811 21.66C34.5811 21.76 34.5711 21.85 34.5511 21.93C34.5511 21.95 34.5411 21.97 34.5211 21.99C34.5211 21.99 34.5211 22.01 34.5211 22.05C34.5211 22.09 34.5311 22.12 34.5511 22.14C34.5711 22.16 34.5811 22.22 34.5811 22.32C34.5811 22.4 34.5111 22.58 34.3711 22.86C34.2311 23.14 34.0411 23.44 33.8011 23.76C33.5611 24.06 33.2711 24.33 32.9311 24.57C32.6111 24.81 32.2611 24.93 31.8811 24.93C31.4011 24.93 31.0011 24.8 30.6811 24.54C30.3611 24.3 30.1011 23.96 29.9011 23.52C29.7011 23.08 29.5511 22.58 29.4511 22.02C29.3511 21.44 29.3011 20.83 29.3011 20.19C29.0811 20.77 28.8311 21.37 28.5511 21.99C28.2911 22.61 28.0011 23.18 27.6811 23.7C27.3811 24.22 27.0411 24.64 26.6611 24.96C26.3011 25.3 25.9211 25.47 25.5211 25.47C25.1011 25.47 24.7511 25.33 24.4711 25.05C24.2111 24.79 23.9911 24.43 23.8111 23.97C23.6511 23.51 23.5311 22.98 23.4511 22.38C23.3911 21.76 23.3611 21.12 23.3611 20.46C23.3611 19.76 23.3911 19.05 23.4511 18.33C23.5111 17.61 23.5911 16.93 23.6911 16.29C23.7911 15.63 23.8911 15.03 23.9911 14.49C24.1111 13.95 24.2211 13.52 24.3211 13.2C24.3411 13.14 24.3711 13.08 24.4111 13.02C24.4511 12.98 24.4911 12.94 24.5311 12.9C24.5711 12.84 24.6211 12.81 24.6811 12.81C24.9411 12.81 25.2111 12.8 25.4911 12.78C25.7711 12.76 26.1111 12.7 26.5111 12.6C26.6111 12.6 26.6711 12.61 26.6911 12.63C26.7311 12.65 26.7711 12.68 26.8111 12.72L26.8711 12.84C26.8711 12.92 26.8011 13.19 26.6611 13.65C26.5211 14.11 26.3611 14.74 26.1811 15.54C26.0211 16.34 25.8711 17.29 25.7311 18.39C25.5911 19.49 25.5211 20.72 25.5211 22.08C25.5211 22.66 25.5711 23.08 25.6711 23.34C25.7711 23.6 25.9111 23.73 26.0911 23.73C26.2911 23.73 26.5311 23.57 26.8111 23.25C27.1111 22.93 27.4111 22.52 27.7111 22.02C28.0111 21.52 28.3011 20.97 28.5811 20.37C28.8811 19.77 29.1311 19.18 29.3311 18.6C29.3711 18.02 29.4311 17.45 29.5111 16.89C29.5911 16.31 29.6811 15.77 29.7811 15.27C29.9011 14.77 30.0211 14.32 30.1411 13.92C30.2811 13.5 30.4111 13.16 30.5311 12.9C30.7111 12.52 30.9311 12.33 31.1911 12.33ZM38.9032 24.96C38.0232 24.96 37.3332 24.53 36.8332 23.67L36.3232 35.28C36.3032 35.84 36.1632 36.12 35.9032 36.12C35.7632 36.12 35.6032 36.05 35.4232 35.91C35.2632 35.77 35.1032 35.61 34.9432 35.43C34.7832 35.25 34.6432 35.08 34.5232 34.92C34.3832 34.76 34.2932 34.65 34.2532 34.59C34.3332 33.63 34.4232 32.7 34.5232 31.8C34.6032 30.9 34.6832 29.98 34.7632 29.04C34.8432 28.1 34.9132 27.09 34.9732 26.01C35.0532 24.95 35.1232 23.77 35.1832 22.47C35.2432 21.17 35.2832 19.72 35.3032 18.12C35.3432 16.52 35.3632 14.7 35.3632 12.66C35.3632 12.6 35.3732 12.54 35.3932 12.48C35.4332 12.36 35.4832 12.3 35.5432 12.3C35.5432 12.3 35.5832 12.32 35.6632 12.36C35.7432 12.42 35.8732 12.49 36.0532 12.57C36.2332 12.63 36.4132 12.7 36.5932 12.78C36.7932 12.86 36.9632 12.95 37.1032 13.05C37.2432 13.15 37.3132 13.26 37.3132 13.38C37.3132 13.46 37.3032 13.6 37.2832 13.8C37.2832 14 37.2732 14.21 37.2532 14.43C37.2532 14.65 37.2432 14.85 37.2232 15.03C37.2232 15.19 37.2232 15.28 37.2232 15.3C37.6432 14.32 38.1532 13.59 38.7532 13.11C39.3732 12.61 39.9932 12.36 40.6132 12.36C41.0932 12.36 41.5032 12.49 41.8432 12.75C42.2032 12.99 42.4932 13.33 42.7132 13.77C42.9532 14.21 43.1232 14.72 43.2232 15.3C43.3432 15.86 43.4032 16.46 43.4032 17.1C43.4032 18 43.2932 18.92 43.0732 19.86C42.8732 20.78 42.5732 21.62 42.1732 22.38C41.7932 23.14 41.3232 23.76 40.7632 24.24C40.2232 24.72 39.6032 24.96 38.9032 24.96ZM39.6232 14.91C39.1432 14.91 38.6732 15.16 38.2132 15.66C37.7732 16.14 37.4432 16.86 37.2232 17.82L36.9832 21.33C37.0632 22.13 37.2232 22.75 37.4632 23.19C37.7232 23.61 38.0932 23.82 38.5732 23.82C38.9932 23.82 39.3632 23.65 39.6832 23.31C40.0032 22.97 40.2732 22.53 40.4932 21.99C40.7132 21.45 40.8832 20.85 41.0032 20.19C41.1232 19.53 41.1832 18.88 41.1832 18.24C41.1832 17.34 41.0532 16.56 40.7932 15.9C40.5532 15.24 40.1632 14.91 39.6232 14.91ZM49.2451 23.79C49.5451 23.79 49.8351 23.71 50.1151 23.55C50.3951 23.37 50.6451 23.13 50.8651 22.83C51.0851 22.53 51.2651 22.18 51.4051 21.78C51.5451 21.36 51.6151 20.91 51.6151 20.43C51.6151 19.93 51.5251 19.39 51.3451 18.81C51.3451 18.79 51.3551 18.76 51.3751 18.72C51.4151 18.66 51.5251 18.63 51.7051 18.63C51.9851 18.63 52.2051 18.7 52.3651 18.84C52.5451 18.98 52.6851 19.16 52.7851 19.38C52.8851 19.6 52.9551 19.85 52.9951 20.13C53.0351 20.39 53.0551 20.65 53.0551 20.91C53.0551 21.45 52.9551 21.97 52.7551 22.47C52.5551 22.97 52.2851 23.42 51.9451 23.82C51.6051 24.22 51.1951 24.54 50.7151 24.78C50.2551 25.02 49.7451 25.14 49.1851 25.14C48.4051 25.14 47.7351 24.98 47.1751 24.66C46.6351 24.34 46.1851 23.92 45.8251 23.4C45.4851 22.88 45.2251 22.28 45.0451 21.6C44.8851 20.9 44.8051 20.17 44.8051 19.41C44.8051 18.51 44.9151 17.61 45.1351 16.71C45.3751 15.79 45.7051 14.97 46.1251 14.25C46.5451 13.51 47.0451 12.92 47.6251 12.48C48.2251 12.02 48.8851 11.79 49.6051 11.79C50.2851 11.79 50.8051 12.01 51.1651 12.45C51.5251 12.89 51.7051 13.46 51.7051 14.16C51.7051 14.62 51.6151 15.12 51.4351 15.66C51.2551 16.2 50.9751 16.74 50.5951 17.28C50.2351 17.82 49.7651 18.36 49.1851 18.9C48.6251 19.42 47.9551 19.9 47.1751 20.34C47.2751 21.6 47.5151 22.49 47.8951 23.01C48.2951 23.53 48.7451 23.79 49.2451 23.79ZM49.9651 14.1C49.9651 13.96 49.9251 13.83 49.8451 13.71C49.7851 13.59 49.6751 13.53 49.5151 13.53C49.1751 13.53 48.8651 13.7 48.5851 14.04C48.3051 14.36 48.0551 14.78 47.8351 15.3C47.6351 15.82 47.4751 16.42 47.3551 17.1C47.2351 17.76 47.1651 18.42 47.1451 19.08C47.4451 18.88 47.7551 18.58 48.0751 18.18C48.4151 17.76 48.7251 17.31 49.0051 16.83C49.2851 16.35 49.5151 15.87 49.6951 15.39C49.8751 14.89 49.9651 14.46 49.9651 14.1ZM56.2796 16.89C56.0996 16.89 55.9596 16.88 55.8596 16.86C55.7796 17.26 55.6896 17.72 55.5896 18.24C55.5096 18.76 55.4096 19.31 55.2896 19.89C55.1696 20.01 55.0496 20.07 54.9296 20.07C54.8096 20.07 54.6696 20.03 54.5096 19.95C54.4296 19.91 54.3696 19.87 54.3296 19.83C54.4496 19.25 54.5596 18.68 54.6596 18.12C54.7596 17.54 54.8596 16.97 54.9596 16.41C54.5796 16.09 54.2996 15.67 54.1196 15.15C53.9596 14.63 53.8796 14.11 53.8796 13.59C53.8796 12.97 53.9996 12.43 54.2396 11.97C54.4796 11.49 54.8296 11.25 55.2896 11.25C55.7496 11.25 56.0496 11.39 56.1896 11.67C56.3296 11.93 56.3996 12.25 56.3996 12.63C56.3996 12.95 56.3696 13.29 56.3096 13.65C56.2696 13.99 56.2496 14.3 56.2496 14.58C56.2496 15.06 56.3396 15.3 56.5196 15.3C56.6196 15.3 56.8396 15.2 57.1796 15C57.4396 14.82 57.7196 14.6 58.0196 14.34C58.3396 14.08 58.6396 13.82 58.9196 13.56C59.1996 13.3 59.4396 13.08 59.6396 12.9C59.8596 12.72 59.9996 12.63 60.0596 12.63C60.1596 12.63 60.2596 12.68 60.3596 12.78C60.4796 12.86 60.5896 12.96 60.6896 13.08C60.7896 13.2 60.8696 13.33 60.9296 13.47C61.0096 13.61 61.0496 13.73 61.0496 13.83C61.0496 13.93 61.0296 14.02 60.9896 14.1C60.9696 14.14 60.9596 14.18 60.9596 14.22C60.8396 14.5 60.7396 14.76 60.6596 15C60.5796 15.22 60.4896 15.44 60.3896 15.66C60.3096 15.86 60.2496 16.02 60.2096 16.14C59.8696 16.98 59.6196 17.76 59.4596 18.48C59.3196 19.2 59.2496 19.85 59.2496 20.43C59.2496 21.23 59.3596 21.86 59.5796 22.32C59.8196 22.78 60.1096 23.01 60.4496 23.01C60.7496 23.01 61.0696 22.82 61.4096 22.44C61.7496 22.04 62.0896 21.4 62.4296 20.52C62.4696 20.42 62.4996 20.33 62.5196 20.25C62.5396 20.17 62.6496 20.06 62.8496 19.92C62.9296 19.86 62.9896 19.83 63.0296 19.83C63.0896 19.83 63.1196 19.87 63.1196 19.95C63.1196 19.97 63.1096 19.99 63.0896 20.01C63.0896 20.01 63.0896 20.02 63.0896 20.04V20.1C63.0296 20.54 62.9096 21.06 62.7296 21.66C62.5696 22.24 62.3396 22.79 62.0396 23.31C61.7396 23.83 61.3696 24.27 60.9296 24.63C60.5096 25.01 60.0096 25.2 59.4296 25.2C59.0096 25.2 58.6596 25.1 58.3796 24.9C58.1196 24.7 57.9096 24.43 57.7496 24.09C57.5896 23.77 57.4696 23.39 57.3896 22.95C57.3296 22.51 57.2996 22.05 57.2996 21.57C57.2996 21.09 57.3196 20.61 57.3596 20.13C57.4196 19.63 57.4896 19.16 57.5696 18.72C57.6496 18.26 57.7296 17.84 57.8096 17.46C57.9096 17.08 57.9896 16.77 58.0496 16.53C57.8096 16.65 57.5296 16.74 57.2096 16.8C56.9096 16.86 56.5996 16.89 56.2796 16.89Z" fill="#F24462"/>
</svg>
