<svg id="Layer_1" data-name="Layer 1" xmlns="http://www.w3.org/2000/svg" viewBox="0 0 931 1080"><defs><style>.cls-1{fill:#fff;}</style></defs><polygon class="cls-1" points="604.71 698.27 127.02 698.27 127.02 15.39 0.38 15.39 0.38 817.8 64.69 817.8 127.02 817.8 604.71 817.8 604.71 698.27"/><path class="cls-1" d="M373.58,253.67c0-85,78.48-134.14,195.17-134.14,120.26,0,237,58.59,237,58.59V55.28S691,0,568.18,0C368.85,0,249.27,96.65,249.27,269.72c0,393.44,557.23,245.11,557.23,527.89,0,95.3-70,167.54-262.46,167.54-149.55,0-333.78-66.08-333.78-66.08v125.55s134.12,55.38,338,55.38c212.31,0,382.34-96.51,382.34-304.78C930.62,395.92,373.58,540,373.58,253.67Z"/></svg>