<svg id="Layer_1" data-name="Layer 1" xmlns="http://www.w3.org/2000/svg" viewBox="0 0 1080 80"><defs><style>.cls-1{fill:#fff;}</style></defs><polygon class="cls-1" points="14.3 2.87 0.38 2.87 0.38 77.13 2.7 77.13 14.3 77.13 62.5 77.13 62.5 64.12 14.3 64.12 14.3 2.87"/><rect class="cls-1" x="686.59" y="2.87" width="13.92" height="74.26"/><polygon class="cls-1" points="121.32 45.15 161.37 45.15 161.37 32.13 121.32 32.13 121.32 15.88 170.1 15.88 170.1 2.87 121.32 2.87 109.72 2.87 107.4 2.87 107.4 77.13 109.72 77.13 121.32 77.13 171.94 77.13 171.94 64.12 121.32 64.12 121.32 45.15"/><polygon class="cls-1" points="782.96 45.15 823.01 45.15 823.01 32.13 782.96 32.13 782.96 15.88 831.73 15.88 831.73 2.87 782.96 2.87 771.35 2.87 769.03 2.87 769.03 77.13 771.35 77.13 782.96 77.13 833.58 77.13 833.58 64.12 782.96 64.12 782.96 45.15"/><polygon class="cls-1" points="1064.13 2.87 1041.8 37.52 1018.19 2.87 1001.17 2.87 1033.63 49.43 1033.63 77.13 1047.56 77.13 1047.56 49.43 1079.63 2.87 1064.13 2.87"/><polygon class="cls-1" points="891.48 2.87 891.48 15.88 916.27 15.88 916.27 77.13 930.19 77.13 930.19 15.88 954.99 15.88 954.99 2.87 891.48 2.87"/><path class="cls-1" d="M323.19,20.77c0-4.91,6.41-7.85,19-7.85,12.93,0,25.48,6.23,25.48,6.23V4.9S355.29,0,342.08,0c-17.15,0-32.26,7.22-32.26,22,0,30.88,52.59,17.84,52.59,36.57,0,5.52-8.08,8.44-21.76,8.44-16.08,0-32.32-5.6-32.32-5.6V74.89S319.19,80,341.11,80c14.75,0,34.64-4.1,34.64-23.66C375.75,25.26,323.19,37.8,323.19,20.77Z"/><path class="cls-1" d="M464.88,0c-22.63,0-40.95,15.84-40.95,40s18.32,40,40.95,40,41-15.8,41-40S487.52,0,464.88,0Zm0,67C450.43,67,438.31,57,438.31,40s12.12-27,26.57-27S491.5,23,491.5,40,479.37,67,464.88,67Z"/><path class="cls-1" d="M569.45,40c0-17,11.31-27,27.34-27,11.43,0,23.14,6.09,23.14,6.09V4.9S607.08,0,596.79,0c-23.67,0-41.72,15.25-41.72,40s18,40,41.72,40c12.44,0,24.81-5.09,24.81-5.09V61.38A59.55,59.55,0,0,1,596.79,67C581.3,67,569.45,57,569.45,40Z"/></svg>