<svg width="14" height="12" viewBox="0 0 14 12" fill="none" xmlns="http://www.w3.org/2000/svg">
<path d="M0.776978 11.0789L4.06095 4.02886C4.06095 4.02886 6.88948 11.007 6.93742 11.031C7.00933 11.055 13.0499 11.1029 13.1698 11.031C13.2657 10.9351 8.66331 1.24719 8.66331 1.24719L5.5711 7.72176" stroke="white" stroke-width="0.393766" stroke-miterlimit="10"/>
<path d="M2.11682 8.17676C2.18872 8.08095 2.95562 7.45817 3.33908 7.48212C3.77046 7.50607 4.17788 8.4642 4.68116 8.4642C5.08858 8.4642 5.56789 7.72165 5.56789 7.72165" stroke="white" stroke-width="0.393766" stroke-miterlimit="10"/>
<path d="M6.45532 5.89725C6.52722 5.80144 7.43792 5.03495 7.98913 5.0589C8.51638 5.1068 8.82793 6.11282 9.42708 6.11282C9.85846 6.11282 10.5055 5.20262 10.5055 5.20262" stroke="white" stroke-width="0.393766" stroke-miterlimit="10"/>
</svg>
