<svg width="7" height="10" viewBox="0 0 7 10" fill="none" xmlns="http://www.w3.org/2000/svg">
<path fill-rule="evenodd" clip-rule="evenodd" d="M0.328369 3.10427C0.328369 3.61736 0.456602 4.1261 0.700378 4.57733L3.25749 9.20387C3.29154 9.26555 3.35641 9.30376 3.42694 9.30376C3.49747 9.30376 3.56234 9.26555 3.59639 9.20387L6.15445 4.5758C6.39728 4.1261 6.52551 3.61735 6.52551 3.10425C6.52551 1.3951 5.13546 0.0045166 3.42694 0.0045166C1.71842 0.0045166 0.328369 1.3951 0.328369 3.10427ZM1.87766 3.10427C1.87766 2.24968 2.57268 1.5544 3.42694 1.5544C4.2812 1.5544 4.97622 2.24968 4.97622 3.10427C4.97622 3.95886 4.2812 4.65414 3.42694 4.65414C2.57268 4.65414 1.87766 3.95886 1.87766 3.10427Z" fill="#F24462"/>
</svg>
