<svg width="17" height="20" viewBox="0 0 17 20" fill="none" xmlns="http://www.w3.org/2000/svg">
<path d="M15.9574 5.13248C15.0436 4.93154 14.217 4.4463 13.5961 3.74638C12.9753 3.04647 12.5921 2.16786 12.5016 1.23665V0.833313H9.33906V13.3641C9.3397 13.9202 9.16538 14.4623 8.84079 14.9137C8.51621 15.3652 8.05781 15.703 7.53053 15.8795C7.00325 16.0559 6.43382 16.062 5.90291 15.8968C5.372 15.7316 4.90651 15.4036 4.57239 14.9591C4.27305 14.5658 4.08975 14.0964 4.04322 13.6043C3.9967 13.1122 4.08879 12.6168 4.3091 12.1743C4.52941 11.7318 4.86914 11.3597 5.28988 11.1002C5.71061 10.8407 6.19556 10.7041 6.68989 10.7058C6.96328 10.7042 7.2353 10.7444 7.49656 10.825V7.61665C7.19253 7.57899 6.88615 7.56368 6.57989 7.57081C5.45176 7.60096 4.3569 7.95942 3.42938 8.60231C2.50187 9.2452 1.78195 10.1446 1.3578 11.1904C0.933646 12.2362 0.823661 13.383 1.04131 14.4903C1.25896 15.5977 1.79481 16.6175 2.58322 17.425C3.39125 18.2465 4.42526 18.8093 5.55386 19.0418C6.68246 19.2743 7.85471 19.1661 8.92166 18.7309C9.98861 18.2956 10.9021 17.553 11.546 16.5975C12.19 15.6419 12.5354 14.5164 12.5382 13.3641V6.94748C13.8137 7.8586 15.3432 8.34599 16.9107 8.34081V5.22415C16.6028 5.22542 16.2956 5.1947 15.9941 5.13248H15.9574Z" fill="white"/>
</svg>
