<svg width="31" height="26" viewBox="0 0 31 26" fill="none" xmlns="http://www.w3.org/2000/svg">
<path d="M18.0619 11.7629C19.0075 11.7629 19.7741 10.9963 19.7741 10.0506C19.7741 9.10498 19.0075 8.33838 18.0619 8.33838C17.1162 8.33838 16.3496 9.10498 16.3496 10.0506C16.3496 10.9963 17.1162 11.7629 18.0619 11.7629Z" stroke="#ffffff" stroke-width="1.46764" stroke-miterlimit="10"/>
<path d="M6.07739 22.0362C6.07739 17.6333 10.4803 11.7627 17.7696 11.7627C24.5207 11.7627 30.0489 17.7311 29.9999 24.9715H9.9911" stroke="#ffffff" stroke-width="1.46764" stroke-miterlimit="10"/>
<path d="M9.99066 10.7843C8.52302 12.2519 2.9949 12.3987 1.67403 10.7843C0.157466 8.87634 1.67403 1 1.67403 1H9.99066C9.99066 1 11.4583 9.31663 9.99066 10.7843Z" stroke="#ffffff" stroke-width="1.46764" stroke-miterlimit="10"/>
<path d="M6.07739 12.0073V22.0362" stroke="#ffffff" stroke-width="1.46764" stroke-miterlimit="10"/>
<path d="M10.0396 24.9714H2.16324C2.16324 24.9714 1.62511 22.8678 2.16324 22.5743C2.99491 22.1829 8.37626 22.1829 10.0396 22.5743C10.6266 22.7211 10.0396 24.9714 10.0396 24.9714Z" stroke="#ffffff" stroke-width="1.46764" stroke-miterlimit="10"/>
<path d="M1.18457 6.87052C1.18457 6.87052 2.65221 5.89209 3.63064 5.89209C5.19612 5.89209 6.07671 6.87052 7.05513 6.87052C8.03356 6.87052 10.4796 5.89209 10.4796 5.89209" stroke="#ffffff" stroke-width="1.46764" stroke-miterlimit="10"/>
</svg>
