<svg width="111" height="120" viewBox="0 0 111 120" fill="none" xmlns="http://www.w3.org/2000/svg">
<path d="M79.44 29.1621C99.0544 42.5065 104.235 69.3694 91.0106 89.1621C77.7865 108.955 51.1656 114.182 31.5512 100.838C11.9368 87.4935 6.75642 60.6306 19.9806 40.8379C33.2047 21.0452 59.8256 15.8178 79.44 29.1621ZM35.1769 95.4112C51.8212 106.735 74.4111 102.299 85.6328 85.5034C96.8545 68.7078 92.4586 45.9125 75.8143 34.5888C59.1699 23.2651 36.5801 27.701 25.3584 44.4966C14.1367 61.2922 18.5326 84.0875 35.1769 95.4112Z" fill="#231E26"/>
<path d="M33.7258 98.3608C32.7312 99.8765 30.6828 100.3 29.2572 99.1805C23.3341 94.5275 18.7105 88.3718 15.8755 81.3165C12.6284 73.2359 11.8792 64.3532 13.7265 55.8352C15.5737 47.3171 19.9308 39.5619 26.2257 33.5884C32.5205 27.6148 40.4586 23.7021 48.9974 22.3643C57.5362 21.0265 66.2763 22.326 74.0698 26.0922C81.8633 29.8585 88.3456 35.9153 92.6655 43.4671C96.9854 51.019 98.9407 59.7127 98.2746 68.4064C97.6926 76.0025 95.1332 83.2881 90.8817 89.5374C89.8643 91.0327 87.7888 91.2495 86.385 90.1091C84.9987 88.9828 84.7927 86.9569 85.7797 85.4681C89.2407 80.2474 91.3254 74.2004 91.808 67.9019C92.3732 60.5246 90.714 53.1474 87.0482 46.739C83.3825 40.3307 77.8817 35.1911 71.2684 31.9951C64.655 28.7992 57.2383 27.6964 49.9925 28.8317C42.7467 29.9669 36.0106 33.2871 30.669 38.3561C25.3273 43.4252 21.6299 50.006 20.0624 57.2342C18.4949 64.4625 19.1306 72.0001 21.886 78.8571C24.2361 84.7054 28.0343 89.8253 32.894 93.7397C34.2893 94.8636 34.7088 96.8629 33.7258 98.3608Z" fill="url(#paint0_linear_2697_1874)"/>
<path d="M39.4147 70H33.0573V59.9238H34.0075V69.1865H39.4147V70ZM43.6885 70.1982C42.736 70.1891 41.9476 69.861 41.3232 69.2139C40.6715 68.5804 40.3411 67.6348 40.332 66.377C40.332 65.2832 40.6123 64.3763 41.1729 63.6562C41.7334 62.9408 42.5719 62.5739 43.6885 62.5557C44.8187 62.5739 45.6641 62.9408 46.2246 63.6562C46.776 64.3763 47.0518 65.2832 47.0518 66.377C47.0426 67.5436 46.7396 68.4619 46.1426 69.1318C45.5456 69.8337 44.7275 70.1891 43.6885 70.1982ZM46.1562 66.377C46.1654 65.4974 45.9785 64.7682 45.5957 64.1895C45.2129 63.6107 44.5771 63.3167 43.6885 63.3076C42.8135 63.3258 42.1846 63.638 41.8018 64.2441C41.4189 64.8503 41.2275 65.5612 41.2275 66.377C41.2275 67.2884 41.4417 68.0199 41.8701 68.5713C42.2803 69.141 42.8864 69.4303 43.6885 69.4395C44.568 69.4303 45.2038 69.1136 45.5957 68.4893C45.9694 67.8831 46.1562 67.179 46.1562 66.377ZM54.6751 65.0303H53.8206C53.5107 63.9001 52.793 63.3258 51.6673 63.3076C50.8151 63.3258 50.1976 63.6471 49.8148 64.2715C49.4137 64.8913 49.2178 65.5977 49.2269 66.3906C49.2269 67.1745 49.4183 67.8695 49.8011 68.4756C50.1839 69.0999 50.806 69.4212 51.6673 69.4395C52.9342 69.4212 53.6748 68.7718 53.889 67.4912H54.7845C54.6478 68.307 54.3219 68.9564 53.807 69.4395C53.292 69.9362 52.5788 70.1891 51.6673 70.1982C50.528 70.18 49.6872 69.8109 49.1449 69.0908C48.6025 68.3799 48.3314 67.4798 48.3314 66.3906C48.3314 65.3424 48.6208 64.4447 49.1995 63.6973C49.7601 62.9544 50.5827 62.5739 51.6673 62.5557C53.3717 62.542 54.3743 63.3669 54.6751 65.0303ZM57.3424 70H56.5016V59.9238H57.3424V66.1924L60.8971 62.7471H62.0456L59.3317 65.3652L62.3669 70H61.4303L58.7165 65.9531L57.3424 67.2588V70ZM64.1592 65.8711H68.8896C68.8896 65.1328 68.6982 64.5267 68.3154 64.0527C67.9235 63.5651 67.3516 63.3167 66.5996 63.3076C65.8613 63.3167 65.2917 63.5697 64.8906 64.0664C64.4896 64.5586 64.2458 65.1602 64.1592 65.8711ZM69.7852 66.5684H64.1592C64.1592 67.3704 64.3643 68.0426 64.7744 68.585C65.1846 69.1455 65.793 69.4303 66.5996 69.4395C67.7526 69.4303 68.484 68.8743 68.7939 67.7715H69.7305C69.5345 68.4733 69.195 69.0475 68.7119 69.4941C68.2152 69.9544 67.5111 70.1891 66.5996 70.1982C65.4512 70.18 64.6058 69.8109 64.0635 69.0908C63.5212 68.389 63.2546 67.4935 63.2637 66.4043C63.2637 65.3105 63.5622 64.3991 64.1592 63.6699C64.738 62.9453 65.5514 62.5739 66.5996 62.5557C68.6595 62.5739 69.7214 63.9115 69.7852 66.5684ZM77.1214 66.3496C77.1214 65.4974 76.905 64.7819 76.472 64.2031C76.0436 63.6243 75.4421 63.3258 74.6673 63.3076C73.8014 63.3167 73.168 63.6335 72.7669 64.2578C72.3568 64.8867 72.1654 65.666 72.1927 66.5957C72.2201 67.5117 72.4616 68.209 72.9173 68.6875C73.3685 69.1888 73.9518 69.4395 74.6673 69.4395C75.4694 69.4303 76.0801 69.1318 76.4994 68.5439C76.9141 67.9652 77.1214 67.2337 77.1214 66.3496ZM77.1214 63.9092V59.9238H77.9554V70H77.1214V68.7285H77.0872C76.8366 69.2025 76.4788 69.5602 76.014 69.8018C75.5355 70.057 75.0547 70.1891 74.5716 70.1982C73.4232 70.18 72.5869 69.8109 72.0628 69.0908C71.5433 68.3799 71.2881 67.4798 71.2972 66.3906C71.2972 65.3333 71.5615 64.4355 72.0902 63.6973C72.6143 62.9544 73.4277 62.5739 74.5306 62.5557C75.0592 62.5557 75.5537 62.6673 76.014 62.8906C76.4697 63.123 76.8389 63.4626 77.1214 63.9092Z" fill="#AFABAB"/>
<path d="M2.17872 9.88965C2.24252 10.3499 2.36785 10.694 2.5547 10.9219C2.89649 11.3366 3.4821 11.5439 4.31153 11.5439C4.80828 11.5439 5.2116 11.4893 5.52149 11.3799C6.10938 11.1702 6.40333 10.7806 6.40333 10.2109C6.40333 9.87826 6.25749 9.62077 5.96583 9.43848C5.67416 9.26074 5.21615 9.10352 4.5918 8.9668L3.5254 8.72754C2.47722 8.49056 1.75261 8.23307 1.35157 7.95508C0.672534 7.49023 0.333015 6.76335 0.333015 5.77441C0.333015 4.87207 0.66114 4.1224 1.31739 3.52539C1.97364 2.92839 2.93751 2.62988 4.20899 2.62988C5.27084 2.62988 6.17546 2.91243 6.92286 3.47754C7.67481 4.03809 8.06902 4.85384 8.10548 5.9248H6.08204C6.04558 5.31868 5.78126 4.88802 5.28907 4.63281C4.96095 4.46419 4.55307 4.37988 4.06544 4.37988C3.52312 4.37988 3.09018 4.48926 2.76661 4.70801C2.44304 4.92676 2.28126 5.2321 2.28126 5.62402C2.28126 5.98405 2.44076 6.25293 2.75977 6.43066C2.96485 6.54915 3.40235 6.68815 4.07227 6.84766L5.8086 7.26465C6.56967 7.44694 7.14389 7.69076 7.53126 7.99609C8.13282 8.47005 8.4336 9.15592 8.4336 10.0537C8.4336 10.9743 8.08041 11.7399 7.37403 12.3506C6.67221 12.9567 5.67872 13.2598 4.39356 13.2598C3.08106 13.2598 2.04884 12.9613 1.29688 12.3643C0.54493 11.7627 0.168953 10.9378 0.168953 9.88965H2.17872ZM11.8597 5.54883V10.04C11.8597 10.4639 11.9098 10.7829 12.0101 10.9971C12.1878 11.3753 12.5365 11.5645 13.056 11.5645C13.7214 11.5645 14.1771 11.2956 14.4232 10.7578C14.5508 10.4661 14.6146 10.0811 14.6146 9.60254V5.54883H16.5902V13H14.6966V11.9473C14.6784 11.9701 14.6328 12.0384 14.5599 12.1523C14.487 12.2663 14.4004 12.3665 14.3001 12.4531C13.9948 12.7266 13.6986 12.9134 13.4115 13.0137C13.1289 13.1139 12.7962 13.1641 12.4134 13.1641C11.3106 13.1641 10.5677 12.7676 10.1849 11.9746C9.97071 11.5371 9.86361 10.8923 9.86361 10.04V5.54883H11.8597ZM23.694 9.27441C23.694 8.7002 23.5619 8.19206 23.2975 7.75C23.0378 7.30794 22.6139 7.08691 22.026 7.08691C21.3197 7.08691 20.8343 7.42188 20.57 8.0918C20.4333 8.44727 20.3649 8.89844 20.3649 9.44531C20.3649 10.3112 20.5951 10.9196 21.0553 11.2705C21.3288 11.4756 21.6523 11.5781 22.026 11.5781C22.5684 11.5781 22.9808 11.3685 23.2634 10.9492C23.5505 10.5299 23.694 9.97168 23.694 9.27441ZM22.5866 5.38477C23.457 5.38477 24.193 5.70605 24.7946 6.34863C25.4007 6.99121 25.7038 7.93457 25.7038 9.17871C25.7038 10.4912 25.4076 11.4915 24.8151 12.1797C24.2272 12.8678 23.4684 13.2119 22.5387 13.2119C21.9463 13.2119 21.4541 13.0638 21.0622 12.7676C20.848 12.6035 20.6384 12.3643 20.4333 12.0498V15.9326H18.5055V5.54883H20.3717V6.64941C20.5814 6.32585 20.8047 6.07064 21.0417 5.88379C21.4746 5.55111 21.9896 5.38477 22.5866 5.38477ZM30.1416 6.95703C29.6904 6.95703 29.3395 7.09831 29.0889 7.38086C28.8428 7.66341 28.6878 8.04622 28.624 8.5293H31.6524C31.6205 8.01432 31.4632 7.62467 31.1807 7.36035C30.9027 7.09147 30.5563 6.95703 30.1416 6.95703ZM30.1416 5.35059C30.7614 5.35059 31.3197 5.4668 31.8164 5.69922C32.3132 5.93164 32.7233 6.2985 33.0469 6.7998C33.3385 7.24186 33.5277 7.75456 33.6143 8.33789C33.6644 8.67969 33.6849 9.17188 33.6758 9.81445H28.5762C28.6035 10.5618 28.8382 11.0859 29.2803 11.3867C29.5492 11.5736 29.8727 11.667 30.251 11.667C30.652 11.667 30.9779 11.5531 31.2285 11.3252C31.3652 11.2021 31.486 11.0312 31.5908 10.8125H33.5801C33.53 11.2546 33.2998 11.7035 32.8897 12.1592C32.2516 12.8838 31.3584 13.2461 30.21 13.2461C29.2621 13.2461 28.4258 12.9408 27.7012 12.3301C26.9766 11.7194 26.6143 10.7259 26.6143 9.34961C26.6143 8.0599 26.9401 7.07096 27.5918 6.38281C28.2481 5.69466 29.098 5.35059 30.1416 5.35059ZM39.1253 5.37109C39.1618 5.37109 39.1914 5.37337 39.2142 5.37793C39.2415 5.37793 39.2985 5.38021 39.3851 5.38477V7.38086C39.2621 7.36719 39.1527 7.35807 39.057 7.35352C38.9613 7.34896 38.8838 7.34668 38.8246 7.34668C38.0407 7.34668 37.5143 7.60189 37.2454 8.1123C37.0951 8.39941 37.0199 8.84147 37.0199 9.43848V13H35.0579V5.54883H36.9173V6.84766C37.2181 6.35091 37.4801 6.01139 37.7035 5.8291C38.068 5.52376 38.542 5.37109 39.1253 5.37109ZM46.6816 13H44.5899V2.92383H46.6816V13ZM52.7054 5.37109C53.4756 5.37109 54.1045 5.57389 54.5921 5.97949C55.0843 6.38053 55.3304 7.04818 55.3304 7.98242V13H53.3343V8.46777C53.3343 8.07585 53.2819 7.77507 53.1771 7.56543C52.9857 7.18262 52.6211 6.99121 52.0833 6.99121C51.4225 6.99121 50.9691 7.27148 50.723 7.83203C50.5954 8.12826 50.5316 8.50651 50.5316 8.9668V13H48.5902V5.5625H50.4701V6.64941C50.7207 6.2666 50.9577 5.99089 51.181 5.82227C51.582 5.52148 52.0902 5.37109 52.7054 5.37109ZM56.4528 7.00488V5.61719H57.4919V3.53906H59.4196V5.61719H60.6296V7.00488H59.4196V10.9424C59.4196 11.2477 59.4583 11.4391 59.5358 11.5166C59.6133 11.5895 59.8503 11.626 60.2467 11.626C60.306 11.626 60.3675 11.626 60.4313 11.626C60.4997 11.6214 60.5658 11.6169 60.6296 11.6123V13.0684L59.7067 13.1025C58.7861 13.1344 58.1572 12.9749 57.82 12.624C57.6012 12.4007 57.4919 12.0566 57.4919 11.5918V7.00488H56.4528ZM64.9033 6.95703C64.4522 6.95703 64.1012 7.09831 63.8506 7.38086C63.6045 7.66341 63.4496 8.04622 63.3857 8.5293H66.4141C66.3822 8.01432 66.2249 7.62467 65.9424 7.36035C65.6644 7.09147 65.318 6.95703 64.9033 6.95703ZM64.9033 5.35059C65.5231 5.35059 66.0814 5.4668 66.5781 5.69922C67.0749 5.93164 67.485 6.2985 67.8086 6.7998C68.1003 7.24186 68.2894 7.75456 68.376 8.33789C68.4261 8.67969 68.4466 9.17188 68.4375 9.81445H63.3379C63.3652 10.5618 63.5999 11.0859 64.042 11.3867C64.3109 11.5736 64.6344 11.667 65.0127 11.667C65.4137 11.667 65.7396 11.5531 65.9902 11.3252C66.127 11.2021 66.2477 11.0312 66.3525 10.8125H68.3418C68.2917 11.2546 68.0615 11.7035 67.6514 12.1592C67.0134 12.8838 66.1201 13.2461 64.9717 13.2461C64.0238 13.2461 63.1875 12.9408 62.4629 12.3301C61.7383 11.7194 61.376 10.7259 61.376 9.34961C61.376 8.0599 61.7018 7.07096 62.3535 6.38281C63.0098 5.69466 63.8597 5.35059 64.9033 5.35059ZM73.8871 5.37109C73.9235 5.37109 73.9531 5.37337 73.9759 5.37793C74.0033 5.37793 74.0602 5.38021 74.1468 5.38477V7.38086C74.0238 7.36719 73.9144 7.35807 73.8187 7.35352C73.723 7.34896 73.6455 7.34668 73.5863 7.34668C72.8024 7.34668 72.2761 7.60189 72.0072 8.1123C71.8568 8.39941 71.7816 8.84147 71.7816 9.43848V13H69.8197V5.54883H71.679V6.84766C71.9798 6.35091 72.2419 6.01139 72.4652 5.8291C72.8298 5.52376 73.3037 5.37109 73.8871 5.37109ZM78.318 6.95703C77.8669 6.95703 77.516 7.09831 77.2653 7.38086C77.0192 7.66341 76.8643 8.04622 76.8005 8.5293H79.8288C79.7969 8.01432 79.6397 7.62467 79.3571 7.36035C79.0791 7.09147 78.7328 6.95703 78.318 6.95703ZM78.318 5.35059C78.9378 5.35059 79.4961 5.4668 79.9928 5.69922C80.4896 5.93164 80.8997 6.2985 81.2233 6.7998C81.515 7.24186 81.7041 7.75456 81.7907 8.33789C81.8408 8.67969 81.8613 9.17188 81.8522 9.81445H76.7526C76.78 10.5618 77.0147 11.0859 77.4567 11.3867C77.7256 11.5736 78.0492 11.667 78.4274 11.667C78.8285 11.667 79.1543 11.5531 79.405 11.3252C79.5417 11.2021 79.6624 11.0312 79.7673 10.8125H81.7565C81.7064 11.2546 81.4762 11.7035 81.0661 12.1592C80.4281 12.8838 79.5348 13.2461 78.3864 13.2461C77.4385 13.2461 76.6022 12.9408 75.8776 12.3301C75.153 11.7194 74.7907 10.7259 74.7907 9.34961C74.7907 8.0599 75.1165 7.07096 75.7682 6.38281C76.4245 5.69466 77.2744 5.35059 78.318 5.35059ZM84.7725 10.6211C84.8135 10.9674 84.9024 11.2135 85.0391 11.3594C85.2806 11.6191 85.7272 11.749 86.3789 11.749C86.7617 11.749 87.0648 11.6921 87.2881 11.5781C87.516 11.4642 87.6299 11.2933 87.6299 11.0654C87.6299 10.8467 87.5387 10.6803 87.3565 10.5664C87.1742 10.4525 86.4974 10.2565 85.3262 9.97852C84.4831 9.76888 83.8884 9.50684 83.542 9.19238C83.1956 8.88249 83.0225 8.43587 83.0225 7.85254C83.0225 7.16439 83.2913 6.57422 83.8291 6.08203C84.3714 5.58529 85.1325 5.33691 86.1123 5.33691C87.042 5.33691 87.7985 5.52376 88.3818 5.89746C88.9697 6.2666 89.307 6.9069 89.3936 7.81836H87.4453C87.418 7.56771 87.3473 7.36947 87.2334 7.22363C87.0192 6.95931 86.6546 6.82715 86.1397 6.82715C85.7158 6.82715 85.4128 6.89323 85.2305 7.02539C85.0527 7.15755 84.9639 7.3125 84.9639 7.49023C84.9639 7.71354 85.0596 7.87533 85.251 7.97559C85.4424 8.0804 86.1191 8.26042 87.2813 8.51562C88.056 8.69792 88.6371 8.97363 89.0244 9.34277C89.4072 9.71647 89.5986 10.1836 89.5986 10.7441C89.5986 11.4824 89.3229 12.0863 88.7715 12.5557C88.2246 13.0205 87.377 13.2529 86.2285 13.2529C85.0573 13.2529 84.1914 13.0068 83.6309 12.5146C83.0749 12.0179 82.7969 11.3867 82.7969 10.6211H84.7725ZM90.3656 7.00488V5.61719H91.4046V3.53906H93.3324V5.61719H94.5423V7.00488H93.3324V10.9424C93.3324 11.2477 93.3711 11.4391 93.4486 11.5166C93.5261 11.5895 93.763 11.626 94.1595 11.626C94.2188 11.626 94.2803 11.626 94.3441 11.626C94.4124 11.6214 94.4785 11.6169 94.5423 11.6123V13.0684L93.6195 13.1025C92.6989 13.1344 92.07 12.9749 91.7328 12.624C91.514 12.4007 91.4046 12.0566 91.4046 11.5918V7.00488H90.3656ZM98.8161 6.95703C98.3649 6.95703 98.014 7.09831 97.7634 7.38086C97.5173 7.66341 97.3623 8.04622 97.2985 8.5293H100.327C100.295 8.01432 100.138 7.62467 99.8551 7.36035C99.5772 7.09147 99.2308 6.95703 98.8161 6.95703ZM98.8161 5.35059C99.4359 5.35059 99.9941 5.4668 100.491 5.69922C100.988 5.93164 101.398 6.2985 101.721 6.7998C102.013 7.24186 102.202 7.75456 102.289 8.33789C102.339 8.67969 102.359 9.17188 102.35 9.81445H97.2507C97.278 10.5618 97.5127 11.0859 97.9548 11.3867C98.2236 11.5736 98.5472 11.667 98.9255 11.667C99.3265 11.667 99.6523 11.5531 99.903 11.3252C100.04 11.2021 100.16 11.0312 100.265 10.8125H102.255C102.204 11.2546 101.974 11.7035 101.564 12.1592C100.926 12.8838 100.033 13.2461 98.8844 13.2461C97.9365 13.2461 97.1003 12.9408 96.3757 12.3301C95.651 11.7194 95.2887 10.7259 95.2887 9.34961C95.2887 8.0599 95.6146 7.07096 96.2663 6.38281C96.9225 5.69466 97.7725 5.35059 98.8161 5.35059ZM106.501 5.37109C106.952 5.37109 107.353 5.47135 107.704 5.67188C108.055 5.86784 108.34 6.14128 108.559 6.49219V2.9375H110.534V13H108.641V11.9678C108.363 12.4098 108.046 12.7311 107.69 12.9316C107.335 13.1322 106.893 13.2324 106.364 13.2324C105.494 13.2324 104.76 12.8815 104.163 12.1797C103.571 11.4733 103.274 10.5687 103.274 9.46582C103.274 8.19434 103.566 7.19401 104.149 6.46484C104.737 5.73568 105.521 5.37109 106.501 5.37109ZM106.925 11.5918C107.476 11.5918 107.896 11.3867 108.183 10.9766C108.47 10.5664 108.613 10.0355 108.613 9.38379C108.613 8.47233 108.383 7.82064 107.923 7.42871C107.64 7.19173 107.312 7.07324 106.938 7.07324C106.369 7.07324 105.95 7.28971 105.681 7.72266C105.416 8.15104 105.284 8.68424 105.284 9.32227C105.284 10.0104 105.419 10.5618 105.688 10.9766C105.961 11.3867 106.373 11.5918 106.925 11.5918Z" fill="white" fill-opacity="0.9"/>
<defs>
<linearGradient id="paint0_linear_2697_1874" x1="100.845" y1="89.2756" x2="31.5067" y2="118.705" gradientUnits="userSpaceOnUse">
<stop stop-color="#FF007A"/>
<stop offset="0.226193" stop-color="#F24462" stop-opacity="0.8"/>
<stop offset="0.666117" stop-color="#802AB4" stop-opacity="0.6"/>
<stop offset="0.985297" stop-color="#1712FF" stop-opacity="0.4"/>
</linearGradient>
</defs>
</svg>
